<svg width="383" height="375" viewBox="0 0 383 375" fill="none" xmlns="http://www.w3.org/2000/svg">
<g clip-path="url(#clip0_109_2)">
<path d="M345.452 0.000485725H242.791C237.837 0.000232668 233.03 1.75802 229.161 4.98489C225.292 8.21176 222.59 12.7157 221.501 17.7562L169.629 257.734C169.063 260.351 169.053 263.066 169.6 265.688C170.146 268.31 171.236 270.776 172.793 272.912C174.35 275.048 176.336 276.803 178.612 278.054C180.887 279.305 183.398 280.022 185.968 280.154L291.504 285.577C297.155 285.868 302.715 284.004 307.145 280.333C311.575 276.662 314.573 271.436 315.581 265.629L345.007 95.9625L347.196 96.6149L352.828 64.4565L350.575 63.8691L358.789 16.5089C359.141 14.4803 359.059 12.3957 358.55 10.4037C358.041 8.41169 357.117 6.56136 355.844 4.98462C354.57 3.40789 352.979 2.14358 351.184 1.28183C349.388 0.420076 347.432 -0.0178911 345.456 -0.000848561L345.452 0.000485725Z" fill="#3F3D56"/>
<path d="M256.305 5.17365H244.322C240.881 5.17368 237.543 6.40127 234.863 8.65263C232.182 10.904 230.321 14.0437 229.587 17.5506L179.796 255.57C179.509 256.941 179.509 258.359 179.797 259.73C180.084 261.1 180.651 262.39 181.46 263.51C182.269 264.631 183.3 265.556 184.484 266.223C185.667 266.89 186.974 267.282 188.316 267.374L293.509 274.565C296.477 274.768 299.413 273.824 301.756 271.913C304.099 270.003 305.685 267.259 306.212 264.206L348.699 18.1901C348.974 16.5978 348.911 14.9619 348.513 13.398C348.116 11.8341 347.394 10.3801 346.399 9.13882C345.405 7.89751 344.161 6.89906 342.755 6.21393C341.35 5.5288 339.818 5.17368 338.267 5.17365H326.899C325.799 5.17361 324.729 5.5519 323.856 6.24993C322.982 6.94797 322.354 7.92683 322.068 9.03496C321.815 10.0136 321.26 10.878 320.489 11.4944C319.718 12.1107 318.773 12.4445 317.801 12.4442H263.834C261.932 12.4441 260.1 11.6953 258.704 10.3474C257.308 8.99949 256.451 7.15181 256.305 5.17365Z" fill="white"/>
<path d="M314.456 171.569C314.66 171.577 314.861 171.507 315.02 171.373C315.18 171.24 315.288 171.05 315.325 170.841L338.587 36.9306C338.609 36.8033 338.605 36.6726 338.574 36.5472C338.544 36.4219 338.487 36.305 338.409 36.2044C338.332 36.1046 338.235 36.0238 338.124 35.9677C338.013 35.9116 337.892 35.8817 337.769 35.88L231.933 34.5761H231.923C231.731 34.5778 231.545 34.6475 231.395 34.7738C231.246 34.9 231.143 35.0754 231.101 35.2712L203.677 164.835C203.651 164.961 203.65 165.092 203.677 165.219C203.703 165.345 203.755 165.464 203.829 165.568C203.903 165.671 203.998 165.755 204.106 165.816C204.215 165.876 204.335 165.911 204.458 165.917L314.456 171.569Z" fill="#E6E6E6"/>
<path d="M222.611 180.228C222.515 180.228 222.421 180.262 222.346 180.324C222.27 180.387 222.218 180.474 222.196 180.572L221.205 185.002C221.191 185.065 221.19 185.13 221.202 185.193C221.214 185.256 221.24 185.315 221.276 185.367C221.313 185.419 221.359 185.462 221.413 185.493C221.467 185.524 221.527 185.542 221.589 185.547L277.579 189.698C277.683 189.705 277.786 189.672 277.868 189.606C277.951 189.54 278.008 189.445 278.028 189.339L278.982 184.213C278.993 184.15 278.992 184.086 278.978 184.025C278.964 183.963 278.937 183.905 278.9 183.855C278.862 183.805 278.815 183.764 278.762 183.734C278.708 183.705 278.649 183.688 278.588 183.684L222.637 180.228L222.611 180.228Z" fill="#E6E6E6"/>
<path d="M290.636 206.154C290.737 206.163 290.838 206.134 290.92 206.072C291.002 206.01 291.061 205.92 291.085 205.817L292.298 200.68C292.313 200.617 292.315 200.552 292.303 200.488C292.291 200.425 292.266 200.364 292.229 200.312C292.192 200.26 292.145 200.216 292.091 200.185C292.036 200.153 291.976 200.135 291.914 200.13L220.411 194.914C220.314 194.906 220.217 194.933 220.137 194.991C220.057 195.049 219.998 195.134 219.972 195.231L218.711 199.67C218.693 199.734 218.689 199.801 218.699 199.866C218.709 199.931 218.732 199.993 218.768 200.048C218.804 200.103 218.851 200.148 218.906 200.181C218.961 200.214 219.022 200.235 219.085 200.24L290.636 206.154Z" fill="#E6E6E6"/>
<path d="M286.796 222.62C286.897 222.628 286.998 222.599 287.08 222.537C287.162 222.475 287.221 222.385 287.245 222.282L288.458 217.146C288.473 217.083 288.475 217.017 288.463 216.953C288.451 216.89 288.426 216.83 288.389 216.777C288.352 216.725 288.305 216.681 288.251 216.65C288.197 216.618 288.136 216.6 288.074 216.595L216.571 211.379C216.474 211.371 216.377 211.398 216.297 211.456C216.217 211.514 216.159 211.599 216.132 211.697L214.871 216.135C214.853 216.199 214.849 216.266 214.859 216.331C214.869 216.396 214.892 216.459 214.928 216.513C214.964 216.568 215.011 216.613 215.066 216.647C215.121 216.68 215.182 216.7 215.245 216.705L286.796 222.62Z" fill="#E6E6E6"/>
<path d="M253.865 250.767C253.966 250.778 254.069 250.75 254.152 250.689C254.236 250.627 254.295 250.536 254.319 250.432L256.884 239.729C256.899 239.666 256.901 239.601 256.889 239.538C256.878 239.474 256.853 239.414 256.817 239.362C256.781 239.309 256.735 239.266 256.681 239.234C256.627 239.202 256.568 239.182 256.506 239.177L212.596 235.325C212.493 235.318 212.392 235.348 212.309 235.412C212.226 235.475 212.167 235.567 212.144 235.672L209.955 245.944C209.942 246.005 209.942 246.069 209.954 246.131C209.966 246.193 209.991 246.251 210.027 246.302C210.062 246.353 210.108 246.396 210.161 246.427C210.213 246.459 210.272 246.478 210.332 246.484L253.865 250.767Z" fill="#00FFF0"/>
<path d="M76.5656 207.153C77.1185 206.758 77.5816 206.242 77.9223 205.639C78.2629 205.037 78.4728 204.365 78.5371 203.669C78.6015 202.973 78.5188 202.271 78.2947 201.612C78.0707 200.953 77.7109 200.354 77.2406 199.855L79.0185 158.462L69.9669 159.521L70.493 200.01C69.7423 200.889 69.327 202.025 69.3258 203.202C69.3246 204.379 69.7376 205.516 70.4864 206.396C71.2353 207.277 72.2679 207.84 73.3885 207.979C74.5091 208.119 75.6398 207.824 76.566 207.152L76.5656 207.153Z" fill="#A0616A"/>
<path d="M93.0786 277.224L98.2305 278.168L103.322 257.892L96.5721 256.498L93.0786 277.224Z" fill="#A0616A"/>
<path d="M107.327 284.979L91.1353 282.01L92.235 275.486L102.171 277.308C103.83 277.612 105.305 278.591 106.272 280.03C107.239 281.469 107.618 283.249 107.327 284.98L107.327 284.979Z" fill="#2F2E41"/>
<path d="M78.9382 279.913H84.1691L86.6574 258.87H78.9374L78.9382 279.913Z" fill="#A0616A"/>
<path d="M94.2552 284.98L77.8156 284.981L77.8153 278.356L87.9032 278.356C89.5878 278.355 91.2034 279.053 92.3946 280.296C93.5859 281.538 94.2552 283.223 94.2552 284.98Z" fill="#2F2E41"/>
<path d="M100.762 272.37C100.68 272.371 100.598 272.366 100.517 272.355L94.3608 271.827C94.0805 271.793 93.8098 271.699 93.5652 271.552C93.3206 271.406 93.1071 271.208 92.9378 270.973C92.7685 270.737 92.6469 270.468 92.5803 270.182C92.5137 269.896 92.5035 269.599 92.5505 269.309L98.6624 237.855L94.8224 216.729C94.7911 216.557 94.7014 216.403 94.5697 216.295C94.438 216.187 94.2733 216.133 94.106 216.141C93.9387 216.15 93.78 216.221 93.6592 216.343C93.5385 216.464 93.4638 216.626 93.449 216.8L87.7911 270.48C87.7383 271.046 87.4769 271.568 87.0622 271.936C86.6475 272.304 86.1118 272.49 85.5682 272.455L79.7677 272.229C79.2595 272.192 78.782 271.961 78.4254 271.582C78.0689 271.202 77.8579 270.699 77.8324 270.169L78.2957 205.301L108.367 201.38L110.468 235.219L110.46 235.255L102.783 270.711C102.673 271.184 102.414 271.604 102.047 271.905C101.681 272.206 101.228 272.37 100.762 272.37Z" fill="#2F2E41"/>
<path d="M88.2126 131.64C94.0001 131.64 98.6918 126.747 98.6918 120.71C98.6918 114.674 94.0001 109.78 88.2126 109.78C82.4251 109.78 77.7334 114.674 77.7334 120.71C77.7334 126.747 82.4251 131.64 88.2126 131.64Z" fill="#A0616A"/>
<path d="M98.0863 210.237C96.4473 210.248 94.8399 209.768 93.454 208.855C88.3768 205.546 82.6122 206.861 79.6273 207.94C79.331 208.048 79.0151 208.085 78.7033 208.048C78.3914 208.011 78.0916 207.901 77.8263 207.726C77.5641 207.554 77.3425 207.323 77.1782 207.049C77.0139 206.775 76.9111 206.466 76.8774 206.145L71.4499 155.581C70.5403 147.109 75.4332 139.144 83.0841 136.642C83.3716 136.548 83.6639 136.459 83.9608 136.375C86.3417 135.702 88.8351 135.581 91.2656 136.021C93.6961 136.461 96.0046 137.451 98.0287 138.922C100.091 140.408 101.815 142.348 103.08 144.605C104.346 146.862 105.122 149.381 105.353 151.984L109.923 202.887C109.954 203.216 109.912 203.549 109.799 203.858C109.685 204.168 109.505 204.446 109.272 204.67C107.669 206.215 103.019 210.237 98.0863 210.237Z" fill="#00FFF0"/>
<path d="M81.5571 166.424L69.3119 165.02C68.9635 164.98 68.6274 164.862 68.3265 164.674C68.0257 164.487 67.7671 164.234 67.5685 163.932C67.3699 163.631 67.2359 163.289 67.1756 162.929C67.1153 162.568 67.1302 162.199 67.2192 161.845L70.3364 149.454C70.4282 148.525 70.6956 147.624 71.1231 146.804C71.5506 145.983 72.1298 145.26 72.8271 144.674C73.5244 144.089 74.3261 143.653 75.1858 143.393C76.0455 143.132 76.9461 143.052 77.8357 143.157C78.7253 143.262 79.5861 143.549 80.3685 144.003C81.1508 144.457 81.8392 145.068 82.3938 145.801C82.9484 146.534 83.3582 147.374 83.5996 148.273C83.8409 149.172 83.9091 150.112 83.8 151.039L84.263 163.8C84.2762 164.165 84.2138 164.529 84.08 164.867C83.9461 165.205 83.744 165.509 83.4873 165.758C83.2307 166.007 82.9256 166.196 82.5928 166.311C82.26 166.426 81.9073 166.465 81.5588 166.425L81.5571 166.424Z" fill="#00FFF0"/>
<path d="M109.873 205.381C110.376 204.919 110.776 204.348 111.044 203.708C111.313 203.067 111.443 202.373 111.427 201.675C111.41 200.976 111.247 200.29 110.949 199.664C110.65 199.038 110.224 198.488 109.7 198.053L106.682 156.737L97.8124 158.82L103.018 199.055C102.374 200.022 102.093 201.201 102.228 202.37C102.362 203.539 102.904 204.615 103.749 205.395C104.594 206.175 105.684 206.605 106.813 206.602C107.941 206.599 109.03 206.165 109.871 205.381H109.873Z" fill="#A0616A"/>
<path d="M94.4123 163.827C94.1556 163.578 93.9534 163.274 93.8195 162.937C93.6857 162.599 93.6233 162.235 93.6367 161.869L94.0996 149.109C93.9998 148.187 94.0751 147.253 94.3211 146.361C94.5672 145.47 94.9793 144.637 95.5338 143.912C96.0883 143.186 96.7745 142.581 97.553 142.132C98.3316 141.683 99.1873 141.399 100.071 141.295C100.955 141.19 101.85 141.269 102.705 141.526C103.56 141.782 104.358 142.212 105.054 142.79C105.75 143.369 106.329 144.084 106.76 144.897C107.19 145.709 107.463 146.601 107.563 147.523L110.68 159.915C110.769 160.268 110.784 160.638 110.724 160.998C110.664 161.358 110.53 161.701 110.331 162.002C110.132 162.303 109.874 162.556 109.573 162.744C109.272 162.932 108.936 163.049 108.588 163.089L96.3425 164.494C95.994 164.534 95.6412 164.495 95.3084 164.38C94.9756 164.265 94.6705 164.076 94.414 163.826L94.4123 163.827Z" fill="#00FFF0"/>
<path d="M87.5892 132.052C87.4025 132.052 87.2164 132.029 87.0346 131.984L86.9813 131.971C77.768 130.503 75.7315 124.935 75.2848 122.61C74.8223 120.204 75.3488 117.881 76.5392 116.978C75.8902 114.842 75.9943 112.946 76.8494 111.344C78.3427 108.549 81.5772 107.606 82.0119 107.488C84.5966 105.499 87.6891 106.827 88.2518 107.096C93.2519 105.167 95.1637 106.773 95.5085 107.131C97.7433 107.55 99.1056 108.45 99.5579 109.808C100.407 112.359 97.7211 115.531 97.6064 115.665L97.5466 115.735L93.5446 115.933C93.1648 115.952 92.7931 116.054 92.4535 116.233C92.114 116.411 91.8142 116.662 91.5736 116.969C91.333 117.276 91.1569 117.632 91.0569 118.015C90.9568 118.397 90.9349 118.798 90.9927 119.19C91.101 119.695 91.2377 120.194 91.4023 120.683C92.085 122.91 92.597 124.814 91.9373 125.537C91.7877 125.677 91.6033 125.77 91.4052 125.806C91.2072 125.842 91.0034 125.819 90.8174 125.74C90.1914 125.565 89.7669 125.602 89.5553 125.849C89.2268 126.231 89.327 127.199 89.8377 128.574C89.998 129.009 90.0411 129.482 89.9624 129.94C89.8838 130.399 89.6863 130.826 89.3914 131.176C89.1694 131.449 88.8932 131.669 88.582 131.82C88.2707 131.971 87.9317 132.05 87.5884 132.052H87.5892Z" fill="#2F2E41"/>
</g>
<path d="M390 330C390 354.853 369.853 375 345 375L45 375C20.1472 375 0 354.853 0 330C0 305.147 20.1472 285 45 285L345 285C369.853 285 390 305.147 390 330Z" fill="url(#paint0_linear_109_2)"/>
<defs>
<linearGradient id="paint0_linear_109_2" x1="364" y1="203.289" x2="364.209" y2="357.453" gradientUnits="userSpaceOnUse">
<stop offset="0.118545" stop-color="#00FFF0"/>
<stop offset="0.87731" stop-color="#00FFF0" stop-opacity="0"/>
</linearGradient>
<clipPath id="clip0_109_2">
<rect width="342" height="288" fill="white" transform="translate(17)"/>
</clipPath>
</defs>
</svg>
