<svg width="49" height="40" viewBox="0 0 49 40" fill="none" xmlns="http://www.w3.org/2000/svg">
<g clip-path="url(#clip0_1_98)">
<path d="M40.8333 5C41.9163 5 42.9549 5.35119 43.7207 5.97631C44.4864 6.60143 44.9166 7.44928 44.9166 8.33333V31.6667C44.9166 32.5507 44.4864 33.3986 43.7207 34.0237C42.9549 34.6488 41.9163 35 40.8333 35H8.16665C7.08368 35 6.04507 34.6488 5.27929 34.0237C4.51352 33.3986 4.08331 32.5507 4.08331 31.6667V8.33333C4.08331 7.44928 4.51352 6.60143 5.27929 5.97631C6.04507 5.35119 7.08368 5 8.16665 5H40.8333ZM34.7083 25H14.2916C13.7502 25 13.2309 25.1756 12.848 25.4882C12.4651 25.8007 12.25 26.2246 12.25 26.6667C12.25 27.1087 12.4651 27.5326 12.848 27.8452C13.2309 28.1577 13.7502 28.3333 14.2916 28.3333H34.7083C35.2498 28.3333 35.7691 28.1577 36.152 27.8452C36.5349 27.5326 36.75 27.1087 36.75 26.6667C36.75 26.2246 36.5349 25.8007 36.152 25.4882C35.7691 25.1756 35.2498 25 34.7083 25ZM20.4166 11.6667H16.3333C15.3031 11.6664 14.3109 11.984 13.5555 12.5558C12.8001 13.1276 12.3375 13.9114 12.2602 14.75L12.25 15V18.3333C12.2497 19.1743 12.6387 19.9843 13.3392 20.6009C14.0397 21.2175 14.9998 21.5953 16.0271 21.6583L16.3333 21.6667H20.4166C21.4468 21.6669 22.4391 21.3493 23.1944 20.7775C23.9498 20.2057 24.4125 19.4219 24.4898 18.5833L24.5 18.3333V15C24.5003 14.159 24.1112 13.3491 23.4108 12.7324C22.7103 12.1158 21.7502 11.7381 20.7229 11.675L20.4166 11.6667ZM34.7083 18.3333H28.5833C28.0629 18.3338 27.5624 18.4965 27.184 18.7881C26.8056 19.0797 26.5779 19.4783 26.5474 19.9023C26.5169 20.3264 26.6859 20.744 27.0199 21.0697C27.3539 21.3955 27.8277 21.6048 28.3444 21.655L28.5833 21.6667H34.7083C35.2287 21.6662 35.7292 21.5035 36.1076 21.2119C36.486 20.9203 36.7137 20.5217 36.7442 20.0977C36.7747 19.6736 36.6057 19.256 36.2717 18.9303C35.9377 18.6045 35.4639 18.3952 34.9472 18.345L34.7083 18.3333ZM20.4166 15V18.3333H16.3333V15H20.4166ZM34.7083 11.6667H28.5833C28.0418 11.6667 27.5225 11.8423 27.1396 12.1548C26.7567 12.4674 26.5416 12.8913 26.5416 13.3333C26.5416 13.7754 26.7567 14.1993 27.1396 14.5118C27.5225 14.8244 28.0418 15 28.5833 15H34.7083C35.2498 15 35.7691 14.8244 36.152 14.5118C36.5349 14.1993 36.75 13.7754 36.75 13.3333C36.75 12.8913 36.5349 12.4674 36.152 12.1548C35.7691 11.8423 35.2498 11.6667 34.7083 11.6667Z" fill="white"/>
</g>
<defs>
<clipPath id="clip0_1_98">
<rect width="49" height="40" fill="white"/>
</clipPath>
</defs>
</svg>
