<svg width="41" height="40" viewBox="0 0 41 40" fill="none" xmlns="http://www.w3.org/2000/svg">
<path d="M20.5 36.6667C21.8667 36.6667 23.2334 36.5 24.4292 36.1667C23.7459 35.3333 23.0625 34.3333 22.7209 33.1667C22.0375 33.3333 21.1834 33.3333 20.5 33.3333C12.9834 33.3333 6.83335 27.3333 6.83335 20C6.83335 12.6667 12.9834 6.66667 20.5 6.66667C21.8667 6.66667 23.0625 6.83333 24.2584 7.16667L26.9917 4.5C24.9417 3.83333 22.7209 3.33333 20.5 3.33333C11.1042 3.33333 3.41669 10.8333 3.41669 20C3.41669 29.1667 11.1042 36.6667 20.5 36.6667ZM11.1042 19.1667L13.4959 16.8333L18.7917 22L33.4834 7.66667L35.875 10L18.7917 26.6667L11.1042 19.1667ZM32.4584 23.3333L30.3059 27.9167L25.625 30L30.3059 32.1L32.4584 36.6667L34.5938 32.1L39.2917 30L34.5938 27.9167L32.4584 23.3333Z" fill="white"/>
</svg>
