<svg width="51" height="54" viewBox="0 0 51 54" fill="none" xmlns="http://www.w3.org/2000/svg">
<path d="M45.2412 13.2525L23.9912 35.7525C23.7946 35.9611 23.5611 36.1266 23.304 36.2395C23.047 36.3524 22.7714 36.4105 22.4931 36.4105C22.2148 36.4105 21.9392 36.3524 21.6821 36.2395C21.4251 36.1266 21.1915 35.9611 20.9949 35.7525L14.9812 29.385C14.7845 29.1767 14.6284 28.9294 14.5219 28.6572C14.4155 28.3851 14.3607 28.0933 14.3607 27.7987C14.3607 27.5042 14.4155 27.2124 14.5219 26.9403C14.6284 26.6681 14.7845 26.4208 14.9812 26.2125C15.1779 26.0042 15.4115 25.8389 15.6685 25.7262C15.9256 25.6135 16.2011 25.5555 16.4793 25.5555C16.7575 25.5555 17.033 25.6135 17.2901 25.7262C17.5471 25.8389 17.7807 26.0042 17.9774 26.2125L22.4824 30.9825L42.2237 10.08C42.4203 9.87142 42.6538 9.70593 42.9109 9.59303C43.1679 9.48012 43.4435 9.422 43.7218 9.422C44.0001 9.422 44.2757 9.48012 44.5328 9.59303C44.7898 9.70593 45.0234 9.87142 45.2199 10.08C46.0699 10.9575 46.0699 12.375 45.2412 13.2525ZM33.5112 6.165C29.9199 4.6125 25.8399 4.0725 21.5899 4.8825C12.9412 6.525 6.03494 13.905 4.56869 23.0625C3.98692 26.5515 4.19081 30.1365 5.16378 33.5264C6.13674 36.9162 7.85134 40.0152 10.1682 42.5714C12.4851 45.1276 15.3389 47.0689 18.4977 48.2377C21.6565 49.4064 25.0312 49.7695 28.3474 49.2975C36.7624 48.15 43.8174 41.5125 46.0274 32.85C46.8774 29.5425 46.9624 26.3475 46.4737 23.355C46.1974 21.555 44.0937 20.8575 42.8612 22.14C42.3724 22.6575 42.1599 23.4225 42.2874 24.1425C42.7549 27.135 42.5424 30.33 41.1824 33.7275C38.7174 39.825 33.3624 44.3025 27.1362 44.91C16.2987 45.9675 7.30994 36.2475 8.64869 24.705C9.56244 16.74 15.6187 10.26 23.1199 9.1575C26.7962 8.6175 30.2812 9.36 33.2562 10.98C33.7578 11.2575 34.3429 11.3126 34.8829 11.1333C35.4229 10.954 35.8735 10.5548 36.1356 10.0237C36.3976 9.49265 36.4497 8.87308 36.2803 8.30133C36.111 7.72958 35.734 7.25248 35.2324 6.975C34.6587 6.705 34.0849 6.4125 33.5112 6.165Z" fill="#158603"/>
</svg>
