<svg width="35" height="30" viewBox="0 0 35 30" fill="none" xmlns="http://www.w3.org/2000/svg">
<path d="M29.5313 12.5C29.5313 12.2948 29.4841 12.0916 29.3925 11.902C29.3009 11.7125 29.1666 11.5402 28.9973 11.3951C28.8281 11.25 28.6271 11.1349 28.4059 11.0564C28.1848 10.9779 27.9477 10.9375 27.7083 10.9375C27.469 10.9375 27.2319 10.9779 27.0107 11.0564C26.7896 11.1349 26.5886 11.25 26.4193 11.3951C26.2501 11.5402 26.1158 11.7125 26.0242 11.902C25.9326 12.0916 25.8854 12.2948 25.8854 12.5H29.5313ZM9.11459 12.5C9.11459 12.0856 8.92253 11.6882 8.58067 11.3951C8.23881 11.1021 7.77514 10.9375 7.29167 10.9375C6.80821 10.9375 6.34454 11.1021 6.00268 11.3951C5.66081 11.6882 5.46876 12.0856 5.46876 12.5H9.11459ZM29.3358 16.105C29.6777 16.3981 30.1415 16.5627 30.625 16.5627C31.1085 16.5627 31.5723 16.3981 31.9142 16.105C32.2561 15.8119 32.4482 15.4144 32.4482 15C32.4482 14.5855 32.2561 14.1881 31.9142 13.895L29.3358 16.105ZM17.5 3.74999L18.7892 2.64499C18.6199 2.49985 18.4189 2.38472 18.1977 2.30617C17.9765 2.22762 17.7394 2.18719 17.5 2.18719C17.2606 2.18719 17.0235 2.22762 16.8023 2.30617C16.5811 2.38472 16.3801 2.49985 16.2108 2.64499L17.5 3.74999ZM3.08584 13.895C2.74393 14.1881 2.55185 14.5855 2.55185 15C2.55185 15.4144 2.74393 15.8119 3.08584 16.105C3.42775 16.3981 3.89148 16.5627 4.37501 16.5627C4.85854 16.5627 5.32226 16.3981 5.66417 16.105L3.08584 13.895ZM10.2083 27.8125H24.7917V24.6875H10.2083V27.8125ZM29.5313 23.75V12.5H25.8854V23.75H29.5313ZM9.11459 23.75V12.5H5.46876V23.75H9.11459ZM31.9142 13.895L18.7892 2.64499L16.2108 4.85499L29.3358 16.105L31.9142 13.895ZM16.2108 2.64499L3.08584 13.895L5.66417 16.105L18.7892 4.85499L16.2108 2.64499ZM24.7917 27.8125C26.0487 27.8125 27.2542 27.3845 28.1431 26.6226C29.0319 25.8607 29.5313 24.8274 29.5313 23.75H25.8854C25.8854 23.9986 25.7702 24.2371 25.5651 24.4129C25.36 24.5887 25.0818 24.6875 24.7917 24.6875V27.8125ZM10.2083 24.6875C9.91826 24.6875 9.64006 24.5887 9.43494 24.4129C9.22982 24.2371 9.11459 23.9986 9.11459 23.75H5.46876C5.46876 24.8274 5.9681 25.8607 6.85695 26.6226C7.74579 27.3845 8.95132 27.8125 10.2083 27.8125V24.6875Z" fill="black"/>
</svg>
