<svg width="329" height="199" viewBox="0 0 329 199" fill="none" xmlns="http://www.w3.org/2000/svg">
<g clip-path="url(#clip0_36_463)">
<path d="M158.713 197.901C200.545 197.901 234.456 163.726 234.456 121.569C234.456 79.412 200.545 45.237 158.713 45.237C116.882 45.237 82.9705 79.412 82.9705 121.569C82.9705 163.726 116.882 197.901 158.713 197.901Z" fill="white"/>
<path d="M158.497 198.391C83.557 200.126 81.9138 164.246 81.9138 121.569C81.9138 78.8925 116.366 44.1724 158.713 44.1724C201.061 44.1724 235.513 78.8926 235.513 121.569C235.513 164.246 200.844 198.391 158.497 198.391ZM158.713 46.3021C117.531 46.3021 84.7205 80.0725 84.027 121.569C83.382 160.165 124.068 208.329 158.713 196.836C177.293 176.215 229.821 154.005 233.4 121.569C237.951 80.3207 199.896 46.3021 158.713 46.3021Z" fill="#3F3D56"/>
<path d="M148.38 161.296C147.072 161.296 145.782 160.989 144.613 160.4C143.443 159.81 142.425 158.954 141.641 157.899L120.977 130.133C120.313 129.241 119.829 128.226 119.554 127.145C119.279 126.065 119.218 124.94 119.374 123.836C119.531 122.732 119.901 121.67 120.465 120.71C121.029 119.75 121.775 118.912 122.66 118.243C123.545 117.573 124.553 117.087 125.625 116.81C126.697 116.533 127.813 116.472 128.909 116.63C130.004 116.788 131.058 117.162 132.01 117.731C132.962 118.3 133.794 119.052 134.458 119.944L147.977 138.108L182.698 85.6214C183.938 83.749 185.866 82.4494 188.056 82.0085C190.247 81.5676 192.521 82.0213 194.38 83.2701C196.239 84.5188 197.529 86.4603 197.968 88.6677C198.407 90.8751 197.957 93.1676 196.719 95.0414L155.392 157.515C154.644 158.645 153.638 159.578 152.459 160.235C151.28 160.892 149.962 161.255 148.615 161.293C148.537 161.295 148.459 161.296 148.38 161.296Z" fill="#F2F2F2"/>
<path d="M2.41466e-06 198.45C-0.000211248 198.522 0.0137566 198.594 0.0410984 198.661C0.0684401 198.728 0.108619 198.788 0.159322 198.839C0.210025 198.891 0.270248 198.931 0.336535 198.959C0.402821 198.986 0.473865 199 0.545568 199H328.454C328.599 199 328.738 198.942 328.84 198.839C328.943 198.736 329 198.596 329 198.45C329 198.304 328.943 198.165 328.84 198.061C328.738 197.958 328.599 197.9 328.454 197.9H0.545568C0.473866 197.9 0.402827 197.914 0.336542 197.942C0.270256 197.969 0.210031 198.01 0.159329 198.061C0.108626 198.112 0.068448 198.173 0.0411054 198.24C0.0137628 198.306 -0.000208814 198.378 2.41466e-06 198.45Z" fill="#CCCCCC"/>
<path d="M207.081 193.061H202.646L200.537 175.821L207.083 175.821L207.081 193.061Z" fill="#FFB6B6"/>
<path d="M207.238 197.724L193.599 197.723V197.549C193.599 196.13 194.159 194.77 195.154 193.767C196.15 192.763 197.5 192.2 198.908 192.2L201.399 190.295L206.047 192.2L207.238 192.2L207.238 197.724Z" fill="#2F2E41"/>
<path d="M187.8 171.695L183.703 173.407L175.201 158.296L181.247 155.77L187.8 171.695Z" fill="#FFB6B6"/>
<path d="M189.716 175.941L177.118 181.206L177.052 181.045C176.513 179.735 176.512 178.262 177.05 176.951C177.589 175.64 178.622 174.598 179.922 174.054L181.5 171.333L186.517 171.298L187.617 170.839L189.716 175.941Z" fill="#2F2E41"/>
<path d="M212.152 94.9901L180.678 98.3041L176.467 112.595L161.887 136.209C161.887 136.209 172.061 153.466 171.106 153.278C170.15 153.09 172.06 157.794 173.397 157.521C174.735 157.248 176.125 160.315 175.201 160.861C174.276 161.406 177.986 166.017 177.986 166.017L183.655 160.889C184.861 151.722 183.404 143.563 178.213 136.818L194.457 119.146L197.537 117.858L199.982 183.436L209.025 183.586C211.52 170.649 212.774 159.006 210.823 150.701C210.823 150.701 211.104 125.749 212.173 126.022C213.243 126.295 212.336 123.044 212.336 123.044C212.336 123.044 211.399 120.276 212.55 119.127C213.701 117.979 212.982 111.224 212.982 111.224C214.884 104.832 214.312 99.5534 212.152 94.9901Z" fill="#2F2E41"/>
<path d="M187.952 42.2531L196.653 39.9808L200.715 34.3352L210.361 35.5303L212.414 43.2308L219.281 47.2479C219.281 47.2479 215.485 87.7053 216.388 89.9268C217.291 92.1483 220.528 91.9649 217.764 94.8286C214.999 97.6922 214.633 96.5388 215.274 99.6564C215.916 102.774 220.592 106.074 215.274 106.041C209.956 106.008 177.866 105.546 178.783 101.85C179.7 98.1542 179.686 99.0927 181.068 96.7755C182.451 94.4583 183.381 95.7532 182.916 92.3338C182.451 88.9144 182.909 86.6044 182.909 84.7564C182.909 82.9084 184.445 66.1157 184.445 66.1157L187.952 42.2531Z" fill="#E6E6E6"/>
<path d="M205.513 33.2917C211.159 33.2917 215.735 28.6796 215.735 22.9904C215.735 17.3011 211.159 12.6891 205.513 12.6891C199.868 12.6891 195.292 17.3011 195.292 22.9904C195.292 28.6796 199.868 33.2917 205.513 33.2917Z" fill="#FFB6B6"/>
<path d="M194.803 16.756C195.7 17.487 195.495 21.0418 196.495 20.4624C197.495 19.883 197.703 18.8454 198.855 18.8345C199.794 18.8868 200.679 19.2906 201.338 19.9669C201.46 20.0786 201.577 20.1956 201.69 20.3113C201.794 20.2748 201.896 20.2416 202.004 20.2144C202.811 20.0157 203.664 20.1366 204.386 20.5524C203.719 20.6004 203.085 20.8583 202.571 21.2897C202.791 21.538 203.014 21.7876 203.249 22.0183C205.207 23.9517 209.221 21.8928 211.92 21.4282C209.672 23.9017 210.115 25.2826 210.674 28.5887L210.676 28.7693C210.791 28.0068 213.214 28.0448 212.815 29.0565C212.313 30.056 211.685 30.9859 210.947 31.8232C214.249 29.5182 216.914 26.341 217.503 22.5031C217.624 21.6961 217.86 20.8728 217.632 20.086C217.535 19.6882 217.31 19.3339 216.992 19.0785C216.674 18.8232 216.281 18.6811 215.875 18.6746C216.243 17.4972 216.287 16.2415 216.003 15.0408C215.72 13.8402 215.118 12.7394 214.263 11.8557C213.408 10.972 212.332 10.3382 211.148 10.0219C209.964 9.70549 208.717 9.71834 207.54 10.059C206.466 10.4436 205.419 10.8992 204.405 11.4228C203.381 11.9485 202.222 12.1462 201.084 11.9896C200.375 11.842 199.656 11.472 198.961 11.6815C198.156 11.9249 197.81 12.7822 197.487 13.6097C198.093 13.8328 198.619 14.2328 198.998 14.7587C198.372 14.5257 197.688 14.4978 197.045 14.6788C197.034 14.6809 197.022 14.684 197.011 14.6883C196.281 16.0052 196.239 16.3281 194.803 16.756Z" fill="#2F2E41"/>
<path d="M198.173 37.2213C192.938 36.7965 188.157 40.8317 185.978 45.6478C183.798 50.4639 183.655 55.9275 183.549 61.2198L183.221 77.6707C183.172 80.105 183.123 82.5398 183.003 84.9716C182.941 87.3379 182.646 89.6922 182.121 91.9996C181.054 96.2337 178.706 100.007 176.392 103.701C182.316 105.506 188.34 106.956 194.434 108.043C197.477 98.1238 200.555 87.9192 199.807 77.5636C199.411 72.0839 197.949 66.7338 197.393 61.2682C196.606 53.5274 197.649 45.7296 198.691 38.0193" fill="#3F3D56"/>
<path d="M210.882 38.1466C216.068 38.9869 219.761 44.0507 220.743 49.2507C221.726 54.4506 220.577 59.7921 219.433 64.9583C218.247 70.3113 217.061 75.6643 215.876 81.0173C215.349 83.3937 214.823 85.7704 214.367 88.1615C213.924 90.4843 215.779 93.4634 215.801 95.8286C215.84 100.197 214.998 103.795 216.375 107.937C210.196 108.273 204.002 108.239 197.826 107.838C197.207 97.4735 196.622 86.8241 199.789 76.9439C201.464 71.7156 204.146 66.8686 205.974 61.6923C208.563 54.3614 209.386 46.5368 210.191 38.7979" fill="#3F3D56"/>
<path d="M214.339 112.828C213.954 112.152 213.846 111.351 214.038 110.595C214.23 109.84 214.707 109.19 215.367 108.783C215.503 108.703 215.645 108.634 215.792 108.577L215.131 85.8858L222.294 84.0482L219.562 110.484C219.749 111.116 219.723 111.793 219.489 112.408C219.254 113.024 218.824 113.544 218.265 113.887C217.945 114.079 217.591 114.206 217.223 114.26C216.854 114.314 216.479 114.295 216.118 114.203C215.757 114.111 215.418 113.948 215.119 113.724C214.821 113.5 214.569 113.219 214.378 112.896C214.365 112.874 214.352 112.851 214.339 112.828Z" fill="#FFB6B6"/>
<path d="M213.816 47.2117C213.816 47.2117 218.816 42.9502 223.024 51.471C227.232 59.9917 224.88 79.4574 224.288 80.4963C223.696 81.5352 223.334 80.088 223.659 82.8572C223.922 85.1094 222.354 84.8277 222.917 85.3083C224.4 86.5757 220.245 86.72 222.379 87.8366C224.513 88.9533 214.963 89.1624 214.963 89.1624C214.963 89.1624 213.808 88.331 214.61 85.1959C215.06 83.4351 216.189 82.7909 214.985 81.9761C213.782 81.1612 216.228 78.6422 216.23 78.0895C216.232 77.5368 212.416 65.4478 212.416 65.4478L213.816 47.2117Z" fill="#3F3D56"/>
<path d="M172.439 152.18C171.131 152.18 169.841 151.873 168.671 151.283C167.501 150.694 166.483 149.838 165.699 148.783L145.035 121.017C144.371 120.125 143.887 119.109 143.612 118.029C143.337 116.949 143.276 115.824 143.432 114.72C143.589 113.616 143.959 112.554 144.523 111.594C145.087 110.634 145.833 109.796 146.718 109.126C147.604 108.457 148.611 107.97 149.683 107.694C150.755 107.417 151.871 107.356 152.967 107.514C154.062 107.672 155.116 108.046 156.068 108.615C157.021 109.183 157.852 109.936 158.516 110.828L172.035 128.992L206.757 76.5053C207.37 75.5775 208.159 74.7806 209.079 74.1601C209.998 73.5397 211.03 73.1078 212.115 72.8891C213.2 72.6704 214.317 72.6692 215.402 72.8856C216.487 73.102 217.52 73.5317 218.441 74.1503C219.361 74.7688 220.152 75.564 220.768 76.4905C221.383 77.417 221.812 78.4566 222.029 79.55C222.246 80.6434 222.247 81.7692 222.032 82.863C221.818 83.9569 221.391 84.9974 220.777 85.9252L179.45 148.399C178.702 149.529 177.697 150.461 176.518 151.119C175.338 151.776 174.02 152.139 172.673 152.177C172.595 152.179 172.517 152.18 172.439 152.18Z" fill="#63C2FF"/>
<path d="M188.19 108.887C188.612 108.233 188.764 107.439 188.613 106.674C188.463 105.909 188.022 105.233 187.385 104.791C187.254 104.703 187.116 104.626 186.973 104.561L188.877 81.9414L181.826 79.7077L183.103 106.256C182.882 106.876 182.871 107.553 183.071 108.18C183.272 108.808 183.673 109.351 184.212 109.725C184.521 109.935 184.867 110.081 185.232 110.156C185.597 110.23 185.973 110.232 186.338 110.16C186.704 110.088 187.052 109.945 187.362 109.738C187.673 109.53 187.939 109.264 188.147 108.953C188.162 108.931 188.176 108.909 188.19 108.887Z" fill="#FFB6B6"/>
<path d="M192.317 43.4462C192.317 43.4462 187.558 38.9127 182.89 47.1861C178.221 55.4595 179.501 75.0264 180.036 76.0967C180.57 77.167 181.01 75.7421 180.535 78.489C180.148 80.7231 181.729 80.5292 181.141 80.9778C179.59 82.1605 183.731 82.536 181.539 83.5321C179.347 84.5282 188.872 85.2689 188.872 85.2689C188.872 85.2689 190.07 84.5032 189.441 81.3282C189.088 79.5449 187.997 78.8389 189.243 78.0923C190.489 77.3457 188.185 74.6943 188.214 74.1423C188.242 73.5904 192.715 61.7325 192.715 61.7325L192.317 43.4462Z" fill="#3F3D56"/>
</g>
<defs>
<clipPath id="clip0_36_463">
<rect width="329" height="199" fill="white"/>
</clipPath>
</defs>
</svg>
