<svg width="342" height="288" viewBox="0 0 342 288" fill="none" xmlns="http://www.w3.org/2000/svg">
<g clip-path="url(#clip0_4_120)">
<path d="M328.452 0.000485725H225.791C220.837 0.000232668 216.03 1.75802 212.161 4.98489C208.292 8.21176 205.59 12.7157 204.501 17.7562L152.629 257.734C152.063 260.351 152.053 263.066 152.6 265.688C153.146 268.31 154.236 270.776 155.793 272.912C157.35 275.048 159.336 276.803 161.612 278.054C163.887 279.305 166.398 280.022 168.968 280.154L274.504 285.577C280.155 285.868 285.715 284.004 290.145 280.333C294.575 276.662 297.573 271.436 298.581 265.629L328.007 95.9625L330.196 96.6149L335.828 64.4565L333.575 63.8691L341.789 16.5089C342.141 14.4803 342.059 12.3957 341.55 10.4037C341.041 8.41169 340.117 6.56136 338.844 4.98462C337.57 3.40789 335.979 2.14358 334.184 1.28183C332.388 0.420076 330.432 -0.0178911 328.456 -0.000848561L328.452 0.000485725Z" fill="#3F3D56"/>
<path d="M239.305 5.17365H227.322C223.881 5.17368 220.543 6.40127 217.863 8.65263C215.182 10.904 213.321 14.0437 212.587 17.5506L162.796 255.57C162.509 256.941 162.509 258.359 162.797 259.73C163.084 261.1 163.651 262.39 164.46 263.51C165.269 264.631 166.3 265.556 167.484 266.223C168.667 266.89 169.974 267.282 171.316 267.374L276.509 274.565C279.477 274.768 282.413 273.824 284.756 271.913C287.099 270.003 288.685 267.259 289.212 264.206L331.699 18.1901C331.974 16.5978 331.911 14.9619 331.513 13.398C331.116 11.8341 330.394 10.3801 329.399 9.13882C328.405 7.89751 327.161 6.89906 325.755 6.21393C324.35 5.5288 322.818 5.17368 321.267 5.17365H309.899C308.799 5.17361 307.729 5.5519 306.856 6.24993C305.982 6.94797 305.354 7.92683 305.068 9.03496C304.815 10.0136 304.26 10.878 303.489 11.4944C302.718 12.1107 301.773 12.4445 300.801 12.4442H246.834C244.932 12.4441 243.1 11.6953 241.704 10.3474C240.308 8.99949 239.451 7.15181 239.305 5.17365Z" fill="white"/>
<path d="M297.456 171.569C297.66 171.577 297.861 171.507 298.02 171.373C298.18 171.24 298.288 171.05 298.325 170.841L321.587 36.9306C321.609 36.8033 321.605 36.6726 321.574 36.5472C321.544 36.4219 321.487 36.305 321.409 36.2044C321.332 36.1046 321.235 36.0238 321.124 35.9677C321.013 35.9116 320.892 35.8817 320.769 35.88L214.933 34.5761H214.923C214.731 34.5778 214.545 34.6475 214.395 34.7738C214.246 34.9 214.143 35.0754 214.101 35.2712L186.677 164.835C186.651 164.961 186.65 165.092 186.677 165.219C186.703 165.345 186.755 165.464 186.829 165.568C186.903 165.671 186.998 165.755 187.106 165.816C187.215 165.876 187.335 165.911 187.458 165.917L297.456 171.569Z" fill="#E6E6E6"/>
<path d="M205.611 180.228C205.515 180.228 205.421 180.262 205.346 180.324C205.27 180.387 205.218 180.474 205.196 180.572L204.205 185.002C204.191 185.065 204.19 185.13 204.202 185.193C204.214 185.256 204.24 185.315 204.276 185.367C204.313 185.419 204.359 185.462 204.413 185.493C204.467 185.524 204.527 185.542 204.589 185.547L260.579 189.698C260.683 189.705 260.786 189.672 260.868 189.606C260.951 189.54 261.008 189.445 261.028 189.339L261.982 184.213C261.993 184.15 261.992 184.086 261.978 184.025C261.964 183.963 261.937 183.905 261.9 183.855C261.862 183.805 261.815 183.764 261.762 183.734C261.708 183.705 261.649 183.688 261.588 183.684L205.637 180.228L205.611 180.228Z" fill="#E6E6E6"/>
<path d="M273.636 206.154C273.737 206.163 273.838 206.134 273.92 206.072C274.002 206.01 274.061 205.92 274.085 205.817L275.298 200.68C275.313 200.617 275.315 200.552 275.303 200.488C275.291 200.425 275.266 200.364 275.229 200.312C275.192 200.26 275.145 200.216 275.091 200.185C275.036 200.153 274.976 200.135 274.914 200.13L203.411 194.914C203.314 194.906 203.217 194.933 203.137 194.991C203.057 195.049 202.998 195.134 202.972 195.231L201.711 199.67C201.693 199.734 201.689 199.801 201.699 199.866C201.709 199.931 201.732 199.993 201.768 200.048C201.804 200.103 201.851 200.148 201.906 200.181C201.961 200.214 202.022 200.235 202.085 200.24L273.636 206.154Z" fill="#E6E6E6"/>
<path d="M269.796 222.62C269.897 222.628 269.998 222.599 270.08 222.537C270.162 222.475 270.221 222.385 270.245 222.282L271.458 217.146C271.473 217.083 271.475 217.017 271.463 216.953C271.451 216.89 271.426 216.83 271.389 216.777C271.352 216.725 271.305 216.681 271.251 216.65C271.197 216.618 271.136 216.6 271.074 216.595L199.571 211.379C199.474 211.371 199.377 211.398 199.297 211.456C199.217 211.514 199.159 211.599 199.132 211.697L197.871 216.135C197.853 216.199 197.849 216.266 197.859 216.331C197.869 216.396 197.892 216.459 197.928 216.513C197.964 216.568 198.011 216.613 198.066 216.647C198.121 216.68 198.182 216.7 198.245 216.705L269.796 222.62Z" fill="#E6E6E6"/>
<path d="M236.865 250.767C236.966 250.778 237.069 250.75 237.152 250.689C237.236 250.627 237.295 250.536 237.319 250.432L239.884 239.729C239.899 239.666 239.901 239.601 239.889 239.538C239.878 239.474 239.853 239.414 239.817 239.362C239.781 239.309 239.735 239.266 239.681 239.234C239.627 239.202 239.568 239.182 239.506 239.177L195.596 235.325C195.493 235.318 195.392 235.348 195.309 235.412C195.226 235.475 195.167 235.567 195.144 235.672L192.955 245.944C192.942 246.005 192.942 246.069 192.954 246.131C192.966 246.193 192.991 246.251 193.027 246.302C193.062 246.353 193.108 246.396 193.161 246.427C193.213 246.459 193.272 246.478 193.332 246.484L236.865 250.767Z" fill="#00FFF0"/>
<path d="M59.5656 207.153C60.1185 206.758 60.5816 206.242 60.9223 205.639C61.2629 205.037 61.4728 204.365 61.5371 203.669C61.6015 202.973 61.5188 202.271 61.2947 201.612C61.0707 200.953 60.7109 200.354 60.2406 199.855L62.0185 158.462L52.9669 159.521L53.493 200.01C52.7423 200.889 52.327 202.025 52.3258 203.202C52.3246 204.379 52.7376 205.516 53.4864 206.396C54.2353 207.277 55.2679 207.84 56.3885 207.979C57.5091 208.119 58.6398 207.824 59.566 207.152L59.5656 207.153Z" fill="#A0616A"/>
<path d="M76.0786 277.224L81.2305 278.168L86.3223 257.892L79.5721 256.498L76.0786 277.224Z" fill="#A0616A"/>
<path d="M90.3266 284.979L74.1353 282.01L75.235 275.486L85.1706 277.308C86.8297 277.612 88.305 278.591 89.2719 280.03C90.2389 281.469 90.6182 283.249 90.3265 284.98L90.3266 284.979Z" fill="#2F2E41"/>
<path d="M61.9382 279.913H67.1691L69.6574 258.87H61.9374L61.9382 279.913Z" fill="#A0616A"/>
<path d="M77.2552 284.98L60.8156 284.981L60.8153 278.356L70.9032 278.356C72.5878 278.355 74.2034 279.053 75.3946 280.296C76.5859 281.538 77.2552 283.223 77.2552 284.98Z" fill="#2F2E41"/>
<path d="M83.7615 272.37C83.68 272.371 83.5985 272.366 83.5175 272.355L77.3608 271.827C77.0805 271.793 76.8098 271.699 76.5652 271.552C76.3206 271.406 76.1071 271.208 75.9378 270.973C75.7685 270.737 75.6469 270.468 75.5803 270.182C75.5137 269.896 75.5035 269.599 75.5505 269.309L81.6624 237.855L77.8224 216.729C77.7911 216.557 77.7014 216.403 77.5697 216.295C77.438 216.187 77.2733 216.133 77.106 216.141C76.9387 216.15 76.78 216.221 76.6592 216.343C76.5385 216.464 76.4638 216.626 76.449 216.8L70.7911 270.48C70.7383 271.046 70.4769 271.568 70.0622 271.936C69.6475 272.304 69.1118 272.49 68.5682 272.455L62.7677 272.229C62.2595 272.192 61.782 271.961 61.4254 271.582C61.0689 271.202 60.8579 270.699 60.8324 270.169L61.2957 205.301L91.3672 201.38L93.468 235.219L93.4595 235.255L85.7835 270.711C85.673 271.184 85.4138 271.604 85.0472 271.905C84.6807 272.206 84.228 272.37 83.7615 272.37Z" fill="#2F2E41"/>
<path d="M71.2126 131.64C77.0001 131.64 81.6918 126.747 81.6918 120.71C81.6918 114.674 77.0001 109.78 71.2126 109.78C65.4251 109.78 60.7334 114.674 60.7334 120.71C60.7334 126.747 65.4251 131.64 71.2126 131.64Z" fill="#A0616A"/>
<path d="M81.0863 210.237C79.4473 210.248 77.8399 209.768 76.454 208.855C71.3768 205.546 65.6122 206.861 62.6273 207.94C62.331 208.048 62.0151 208.085 61.7033 208.048C61.3914 208.011 61.0916 207.901 60.8263 207.726C60.5641 207.554 60.3425 207.323 60.1782 207.049C60.0139 206.775 59.9111 206.466 59.8774 206.145L54.4499 155.581C53.5403 147.109 58.4332 139.144 66.0841 136.642C66.3716 136.548 66.6639 136.459 66.9608 136.375C69.3417 135.702 71.8351 135.581 74.2656 136.021C76.6961 136.461 79.0046 137.451 81.0287 138.922C83.0905 140.408 84.8149 142.348 86.0803 144.605C87.3458 146.862 88.1216 149.381 88.3532 151.984L92.9231 202.887C92.9542 203.216 92.9116 203.549 92.7985 203.858C92.6855 204.168 92.5051 204.446 92.2716 204.67C90.6691 206.215 86.0193 210.237 81.0863 210.237Z" fill="#00FFF0"/>
<path d="M64.5571 166.424L52.3119 165.02C51.9635 164.98 51.6274 164.862 51.3265 164.674C51.0257 164.487 50.7671 164.234 50.5685 163.932C50.3699 163.631 50.2359 163.289 50.1756 162.929C50.1153 162.568 50.1302 162.199 50.2192 161.845L53.3364 149.454C53.4282 148.525 53.6956 147.624 54.1231 146.804C54.5506 145.983 55.1298 145.26 55.8271 144.674C56.5244 144.089 57.3261 143.653 58.1858 143.393C59.0455 143.132 59.9461 143.052 60.8357 143.157C61.7253 143.262 62.5861 143.549 63.3685 144.003C64.1508 144.457 64.8392 145.068 65.3938 145.801C65.9484 146.534 66.3582 147.374 66.5996 148.273C66.8409 149.172 66.9091 150.112 66.8 151.039L67.263 163.8C67.2762 164.165 67.2138 164.529 67.08 164.867C66.9461 165.205 66.744 165.509 66.4873 165.758C66.2307 166.007 65.9256 166.196 65.5928 166.311C65.26 166.426 64.9073 166.465 64.5588 166.425L64.5571 166.424Z" fill="#00FFF0"/>
<path d="M92.8732 205.381C93.3762 204.919 93.776 204.348 94.0444 203.708C94.3129 203.067 94.4434 202.373 94.4269 201.675C94.4104 200.976 94.2472 200.29 93.9488 199.664C93.6505 199.038 93.2242 198.488 92.7 198.053L89.6822 156.737L80.8124 158.82L86.0176 199.055C85.374 200.022 85.0929 201.201 85.2276 202.37C85.3624 203.539 85.9037 204.615 86.7488 205.395C87.594 206.175 88.6842 206.605 89.8127 206.602C90.9413 206.599 92.0297 206.165 92.8715 205.381H92.8732Z" fill="#A0616A"/>
<path d="M77.4123 163.827C77.1556 163.578 76.9534 163.274 76.8195 162.937C76.6857 162.599 76.6233 162.235 76.6367 161.869L77.0996 149.109C76.9998 148.187 77.0751 147.253 77.3211 146.361C77.5672 145.47 77.9793 144.637 78.5338 143.912C79.0883 143.186 79.7745 142.581 80.553 142.132C81.3316 141.683 82.1873 141.399 83.0713 141.295C83.9554 141.19 84.8504 141.269 85.7053 141.526C86.5603 141.782 87.3584 142.212 88.0541 142.79C88.7498 143.369 89.3294 144.084 89.76 144.897C90.1905 145.709 90.4634 146.601 90.5633 147.523L93.6804 159.915C93.7694 160.268 93.7843 160.638 93.724 160.998C93.6637 161.358 93.5297 161.701 93.3311 162.002C93.1325 162.303 92.8739 162.556 92.5731 162.744C92.2722 162.932 91.9361 163.049 91.5877 163.089L79.3425 164.494C78.994 164.534 78.6412 164.495 78.3084 164.38C77.9756 164.265 77.6705 164.076 77.414 163.826L77.4123 163.827Z" fill="#00FFF0"/>
<path d="M70.5892 132.052C70.4025 132.052 70.2164 132.029 70.0346 131.984L69.9813 131.971C60.768 130.503 58.7315 124.935 58.2848 122.61C57.8223 120.204 58.3488 117.881 59.5392 116.978C58.8902 114.842 58.9943 112.946 59.8494 111.344C61.3427 108.549 64.5772 107.606 65.0119 107.488C67.5966 105.499 70.6891 106.827 71.2518 107.096C76.2519 105.167 78.1637 106.773 78.5085 107.131C80.7433 107.55 82.1056 108.45 82.5579 109.808C83.4074 112.359 80.7211 115.531 80.6064 115.665L80.5466 115.735L76.5446 115.933C76.1648 115.952 75.7931 116.054 75.4535 116.233C75.114 116.411 74.8142 116.662 74.5736 116.969C74.333 117.276 74.1569 117.632 74.0569 118.015C73.9568 118.397 73.9349 118.798 73.9927 119.19C74.101 119.695 74.2377 120.194 74.4023 120.683C75.085 122.91 75.597 124.814 74.9373 125.537C74.7877 125.677 74.6033 125.77 74.4052 125.806C74.2072 125.842 74.0034 125.819 73.8174 125.74C73.1914 125.565 72.7669 125.602 72.5553 125.849C72.2268 126.231 72.327 127.199 72.8377 128.574C72.998 129.009 73.0411 129.482 72.9624 129.94C72.8838 130.399 72.6863 130.826 72.3914 131.176C72.1694 131.449 71.8932 131.669 71.582 131.82C71.2707 131.971 70.9317 132.05 70.5884 132.052H70.5892Z" fill="#2F2E41"/>
</g>
<defs>
<clipPath id="clip0_4_120">
<rect width="342" height="288" fill="white"/>
</clipPath>
</defs>
</svg>
