<svg width="328" height="303" viewBox="0 0 328 303" fill="none" xmlns="http://www.w3.org/2000/svg">
<g clip-path="url(#clip0_4_149)">
<path d="M233.989 296.802L228.471 296.801L225.846 273.971L233.99 273.971L233.989 296.802Z" fill="#FFB6B6"/>
<path d="M235.396 302.539L217.604 302.538V302.297C217.604 300.327 218.333 298.437 219.632 297.044C220.931 295.651 222.692 294.869 224.529 294.868H224.53L227.78 292.224L233.843 294.869L235.397 294.869L235.396 302.539Z" fill="#2F2E41"/>
<path d="M323.128 275.212L319.365 279.542L302.005 266.035L307.558 259.645L323.128 275.212Z" fill="#FFB6B6"/>
<path d="M328 278.019L315.868 291.981L315.704 291.816C314.36 290.473 313.569 288.612 313.505 286.643C313.44 284.674 314.107 282.758 315.359 281.317L315.772 276.963L321.71 274.008L322.769 272.79L328 278.019Z" fill="#2F2E41"/>
<path d="M314.963 262.381L309.13 275.466L273.314 250.029L268.104 242.415L251.02 217.446L244.075 229.266L239.243 241.622C237.668 242.724 236.341 244.187 235.358 245.906C234.375 247.625 233.759 249.557 233.557 251.562L233.336 253.749L236.389 283.193L224.783 287.016L218.118 247.462L220.297 238.891L222.54 226.86L233.834 188.841H264.058L281.392 228.42L282.66 236.485L287.575 242.535L314.963 262.381Z" fill="#2F2E41"/>
<path d="M252.153 126.639L257.241 130.795L263.376 132.817C263.376 132.817 265.913 171.09 268.199 173.542C270.484 175.993 268.423 176.059 268.882 179.244C269.341 182.429 270.458 188.958 270.458 188.958C255.03 197.717 241.729 197.952 231.046 187.702C230.909 187.068 230.978 186.403 231.243 185.817C231.507 185.231 231.949 184.759 232.498 184.48C234.486 183.348 230.665 178.066 232.29 177.183C233.915 176.3 231.629 168.638 231.629 168.638L233.128 152.654L231.944 150.098L234.835 134.463L239.851 132.498L241.854 127.32L252.153 126.639Z" fill="#3F3D56"/>
<path d="M255.34 194.663C255.317 193.972 255.436 193.284 255.688 192.647C255.94 192.01 256.319 191.441 256.798 190.978C257.278 190.516 257.846 190.172 258.463 189.97C259.079 189.769 259.73 189.715 260.368 189.812L267.538 174.863L271.533 182.476L264.112 195.505C263.888 196.644 263.283 197.656 262.41 198.349C261.538 199.041 260.459 199.367 259.377 199.263C258.296 199.159 257.288 198.634 256.544 197.786C255.8 196.938 255.371 195.827 255.34 194.663Z" fill="#FFB6B6"/>
<path d="M267.415 191.006L282.794 165.439L282.744 165.321C282.686 165.186 279.203 157.118 275.829 149.729C275.309 148.591 274.792 147.469 274.29 146.394C274.074 145.931 273.86 145.477 273.65 145.032C272.233 142.035 270.995 139.558 270.256 138.381C268.621 135.721 266.187 133.74 263.357 132.768L263.286 132.749L263.218 132.779C261.835 133.405 260.691 134.519 259.976 135.936C259.262 137.353 259.018 138.989 259.287 140.574C260.621 148.22 263.593 155.428 267.97 161.631L270.463 165.156L261.799 185.361L267.415 191.006Z" fill="#3F3D56"/>
<path d="M214.531 93.002C214.954 93.5235 215.266 94.1383 215.444 94.8031C215.622 95.4678 215.662 96.1663 215.561 96.8494C215.46 97.5325 215.221 98.1836 214.86 98.7567C214.499 99.3299 214.026 99.8112 213.473 100.167L216.679 116.623L209.106 113.407L207.223 98.273C206.727 97.2368 206.603 96.0418 206.875 94.9143C207.146 93.7868 207.793 92.8052 208.694 92.1554C209.595 91.5057 210.687 91.233 211.763 91.3891C212.838 91.5451 213.823 92.119 214.531 93.002Z" fill="#FFB6B6"/>
<path d="M207.297 103.999L210.36 134.249L210.468 134.306C210.558 134.353 214.437 136.394 219.2 138.825C220.003 139.235 219.888 141.011 220.727 141.436C221.306 141.728 222.833 140.667 223.418 140.96C228.623 143.571 233.887 146.11 235.984 146.798C238.816 147.761 241.87 147.655 244.638 146.5L244.705 146.467L244.74 146.397C245.447 144.976 245.682 143.339 245.405 141.755C245.129 140.172 244.357 138.736 243.218 137.686C237.693 132.648 231.152 129.056 224.111 127.193L220.105 126.139L214.974 104.59L207.297 103.999Z" fill="#3F3D56"/>
<path d="M246.728 124.925C252.286 124.925 256.792 120.092 256.792 114.131C256.792 108.169 252.286 103.336 246.728 103.336C241.17 103.336 236.665 108.169 236.665 114.131C236.665 120.092 241.17 124.925 246.728 124.925Z" fill="#FFB6B6"/>
<path d="M236.737 106.897C237.564 104.315 241.684 102.523 248.363 102.274C255.042 102.025 256.736 110.468 256.736 110.468C261.195 114.347 251.975 124.734 251.529 124.36L251.73 122.409C252.062 119.176 253.473 116.654 251.678 113.285L249.955 113.307C247.729 113.766 245.504 114.225 243.278 114.684L245.913 112.195L245.839 112.072C244.718 112.698 243.498 113.095 242.242 113.243C240.826 113.333 239.278 112.728 238.599 111.392C238.418 111.024 238.307 110.622 238.274 110.208C236.364 111.026 235.491 113.552 235.491 113.552C235.491 113.552 235.909 109.48 236.737 106.897Z" fill="#2F2E41"/>
<path d="M40.5464 107.545C40.4098 107.359 40.2628 107.182 40.1061 107.016C40.1444 106.96 40.1827 106.898 40.221 106.842L40.5464 107.545Z" fill="#2F2E41"/>
<path d="M42.5035 150.961C40.8573 154.097 37.5697 155.848 34.3108 156.705C30.6503 157.733 26.7957 157.653 23.175 156.474C22.7156 156.315 22.2562 156.13 21.8111 155.925C22.0251 155.315 22.1947 154.689 22.3184 154.051C22.485 153.188 22.5684 152.309 22.5672 151.428C22.2046 152.187 21.7349 152.881 21.1746 153.486C20.7425 153.973 20.2516 154.396 19.7151 154.744C18.0509 153.661 16.6099 152.225 15.48 150.525C15.5517 150.335 15.6235 150.145 15.6905 149.955C16.038 148.963 16.3132 147.943 16.5136 146.906C16.7855 145.503 16.9218 144.073 16.9204 142.64C16.3303 143.875 15.5651 145.004 14.652 145.987C14.3783 146.301 14.0875 146.598 13.7811 146.875C13.3067 145.329 13.1232 143.698 13.2415 142.076C13.3598 140.453 13.7775 138.872 14.4702 137.425C16.3653 133.667 20.0405 131.434 23.3138 129.006C26.5918 126.578 29.8699 123.293 30.1474 119.028C30.3341 116.148 29.0898 113.263 29.5875 110.43C29.7968 109.235 30.3078 108.124 31.0649 107.22C31.8219 106.315 32.7959 105.65 33.8807 105.298C34.9656 104.946 36.1198 104.92 37.2174 105.223C38.3151 105.526 39.3143 106.146 40.106 107.016C38.2492 109.839 36.402 112.76 35.6507 116.117C34.8851 119.536 35.512 123.545 38.0243 125.808C38.8857 126.589 39.9433 127.143 40.6085 128.118C41.4938 129.412 41.4986 131.137 41.6421 132.728C41.9293 135.823 42.872 138.8 43.3793 141.865C43.8913 144.924 43.92 148.245 42.5035 150.961Z" fill="#2F2E41"/>
<path d="M8.7572 278.255L13.1248 281.874L28.2193 265.527L21.7731 260.184L8.7572 278.255Z" fill="#A0616A"/>
<path d="M8.94306 274.718L16.1655 279.998L13.8799 283.171L16.9409 293.474C17.0921 293.983 17.0878 294.53 16.9285 295.036C16.7692 295.542 16.4632 295.98 16.0553 296.287C15.6474 296.593 15.159 296.751 14.6612 296.739C14.1634 296.726 13.6824 296.543 13.2885 296.216L5.06899 289.404L5.91306 285.091L3.09907 287.771L0 285.203L8.94306 274.718Z" fill="#2F2E41"/>
<path d="M30.9157 116.664C30.915 118.495 31.3333 120.297 32.1337 121.914C32.9342 123.531 34.0924 124.912 35.5066 125.936C36.9208 126.96 38.5478 127.597 40.2448 127.789C41.9418 127.981 43.6569 127.724 45.2395 127.039C46.8221 126.355 48.2238 125.264 49.3216 123.863C50.4195 122.461 51.1798 120.792 51.536 119.002C51.8921 117.212 51.8331 115.356 51.3642 113.596C50.8953 111.836 50.0308 110.226 48.8466 108.908L48.7965 108.855C48.7131 108.761 48.6297 108.667 48.5421 108.577L48.5405 108.577L48.5392 108.576L48.5383 108.575L48.538 108.573C48.4296 108.466 48.3211 108.358 48.2085 108.255C46.3738 106.529 43.795 104.655 41.1637 104.655C35.405 104.655 30.9157 110.487 30.9157 116.664Z" fill="#2F2E41"/>
<path d="M90.3362 110.922C90.3861 111.518 90.3135 112.119 90.1234 112.682C89.9334 113.245 89.6306 113.757 89.2364 114.181C88.8421 114.605 88.366 114.931 87.8416 115.136C87.3171 115.341 86.7571 115.421 86.201 115.369L60.3861 140.37L55.9437 132.844L82.7157 110.635C82.8592 109.639 83.3384 108.733 84.0625 108.091C84.7867 107.448 85.7054 107.112 86.6448 107.148C87.5841 107.183 88.4787 107.587 89.159 108.282C89.8394 108.978 90.2582 109.917 90.3362 110.922Z" fill="#A0616A"/>
<path d="M49.3533 147.916C49.3533 147.916 50.3138 149.819 53.5948 146.881C56.2214 144.529 68.8054 134.317 71.5164 130.132C72.1355 130.395 72.8185 130.43 73.458 130.231C74.0974 130.032 74.6569 129.61 75.0483 129.032L67.6203 122.054C65.3978 122.329 65.4455 123.93 65.6769 124.84L60.0739 127.563L45.605 137.481L48.6363 146.554L49.3533 147.916Z" fill="#00FFF0"/>
<path d="M35.3363 165.448L34.7952 168.211L34.3358 178.406L54.5629 179.599L53.9348 163.919L51.9742 160.463L35.3363 165.448Z" fill="#A0616A"/>
<path d="M43.9089 128.629C48.7368 128.629 52.6506 124.43 52.6506 119.252C52.6506 114.073 48.7368 109.875 43.9089 109.875C39.0809 109.875 35.1671 114.073 35.1671 119.252C35.1671 124.43 39.0809 128.629 43.9089 128.629Z" fill="#A0616A"/>
<path d="M28.389 153.838L28.3352 146.043C28.334 143.239 29.2188 140.517 30.8452 138.321C32.4717 136.125 34.7439 134.585 37.2911 133.952L37.3241 133.944L39.0527 131.446L46.0756 132.199L47.3628 135.021L52.4517 138.272L54.411 145.028C55.2608 145.635 55.9851 146.424 56.5388 147.344C57.0925 148.265 57.4638 149.298 57.6297 150.379C58.2948 154.936 55.3199 159.497 54.966 160.019L54.0542 165.528L34.2192 169.282L34.0581 169.303L28.389 153.838Z" fill="#00FFF0"/>
<path d="M54.606 117.58C53.5864 118.273 52.5284 118.898 51.438 119.454C50.3313 120.024 49.1737 120.473 47.9829 120.793C47.6422 119.992 47.2253 119.229 46.7387 118.519C46.8639 119.361 46.8671 120.218 46.7483 121.06C44.7745 121.402 42.7528 121.224 40.8573 120.542L39.2111 117.58L39.0867 120.886C37.7229 121.153 36.3638 121.404 34.9999 121.666C34.9186 121.676 34.8372 121.697 34.7606 121.712C33.9136 117.616 35.1148 113.104 37.7851 110.373C39.1109 109.031 40.7647 108.121 42.554 107.749C44.3433 107.376 46.1945 107.556 47.892 108.269C48.1074 108.361 48.3275 108.464 48.538 108.571L48.5384 108.573L48.5394 108.575L48.541 108.576L48.5428 108.577C48.6672 108.643 48.7725 108.802 48.9113 108.787C54.8836 108.073 55.075 113.042 54.606 117.58Z" fill="#2F2E41"/>
<path d="M40.0634 266.164L44.4377 269.774L59.5017 253.394L53.0456 248.066L40.0634 266.164Z" fill="#A0616A"/>
<path d="M40.6391 262.954L47.8715 268.218L45.5918 271.396L48.6722 281.692C48.8244 282.201 48.8211 282.748 48.6628 283.255C48.5044 283.761 48.1993 284.2 47.792 284.507C47.3847 284.814 46.8965 284.974 46.3987 284.962C45.9009 284.95 45.4196 284.769 45.025 284.443L36.7927 277.648L37.6287 273.334L34.8197 276.02L31.7158 273.458L40.6391 262.954Z" fill="#2F2E41"/>
<path d="M25.8688 246.172L25.8686 246.111L27.9418 242.279L25.8248 237.29L25.7613 224.474L26.1045 222.551C26.566 219.963 26.4317 217.294 25.7132 214.774L25.6746 206.973C25.6002 205.019 28.4226 203.3 27.7644 201.671C21.5433 186.272 34.1171 174.524 34.2021 174.43L34.459 174.143L35.8531 175.276L37.1801 175.278L55.0866 178.777L55.2159 179.036C55.9202 180.453 57.2795 185.337 57.3601 187.548C58.2525 188.656 68.4181 201.273 69.3217 202.15C75.4282 208.077 78.9245 217.886 80.465 223.206C80.8476 224.521 80.9247 225.916 80.6896 227.27C80.4546 228.624 79.9144 229.896 79.1163 230.975L55.9987 258.136L49.7775 251.976L62.2863 227.526L61.3842 225.045C59.7658 224.725 58.3011 223.812 57.2401 222.463L54.7072 219.238C54.0059 218.348 53.5603 217.258 53.4242 216.102L51.8882 215.903L46.386 209.707L42.5686 246.788L41.5308 249.717L23.4574 272.508L15.8007 267.375L25.8688 246.172Z" fill="#2F2E41"/>
<path d="M23.1087 86.9501C22.7614 87.419 22.5143 87.9638 22.3846 88.5463C22.2549 89.1287 22.2459 89.7346 22.3581 90.3211C22.4703 90.9077 22.701 91.4608 23.0341 91.9414C23.3671 92.422 23.7943 92.8184 24.2857 93.1027L18.5387 111.353L23.2314 130.693L30.7985 127.023L26.129 112.435L29.6225 91.202C30.0131 90.285 30.0765 89.2462 29.8007 88.2824C29.5249 87.3186 28.9292 86.4967 28.1262 85.9726C27.3233 85.4485 26.3691 85.2585 25.4443 85.4387C24.5195 85.6188 23.6885 86.1566 23.1087 86.9501Z" fill="#A0616A"/>
<path d="M30.0351 146.628C30.0351 146.628 28.2578 147.651 27.0218 143.263C26.0323 139.749 19.298 120.673 19.1767 115.579C18.5247 115.434 17.9362 115.06 17.504 114.517C17.0718 113.973 16.8203 113.291 16.7893 112.578L26.57 111.126C28.2863 112.665 27.4261 113.975 26.767 114.598L30.0982 120.651L37.061 136.991L31.3321 145.912L30.0351 146.628Z" fill="#00FFF0"/>
<path d="M34.998 121.665C36.0025 118.416 37.8035 115.517 40.2122 113.272C42.621 111.026 45.5486 109.518 48.6881 108.904C48.7006 108.899 48.7423 108.882 48.7965 108.855C48.8299 108.832 48.8716 108.81 48.9133 108.788C48.7882 108.712 48.6673 108.645 48.5421 108.577L48.5405 108.577L48.5392 108.576L48.5383 108.575L48.538 108.573C48.4296 108.466 48.3211 108.358 48.2085 108.255L47.8916 108.269C47.8916 108.269 36.7536 106.377 34.998 121.665Z" fill="#FD6584"/>
<path d="M178.719 226.156C179.934 224.196 179.215 221.39 177.112 219.889C175.008 218.389 172.318 218.761 171.102 220.72C169.887 222.68 170.606 225.486 172.709 226.987C174.813 228.488 177.503 228.116 178.719 226.156Z" fill="#F2F2F2"/>
<path d="M154.043 153.006C155.258 151.046 154.539 148.241 152.436 146.74C150.332 145.239 147.642 145.611 146.427 147.571C145.211 149.531 145.93 152.336 148.034 153.837C150.137 155.338 152.827 154.966 154.043 153.006Z" fill="#F2F2F2"/>
<path d="M257.233 265.618C258.449 263.658 257.729 260.853 255.626 259.352C253.523 257.851 250.832 258.223 249.617 260.183C248.401 262.143 249.121 264.948 251.224 266.449C253.327 267.95 256.017 267.578 257.233 265.618Z" fill="#F2F2F2"/>
<path d="M48.6092 30.2881C49.8248 28.3282 49.1053 25.5227 47.0021 24.0218C44.899 22.521 42.2086 22.893 40.993 24.8529C39.7774 26.8128 40.4969 29.6183 42.6001 31.1191C44.7032 32.62 47.3936 32.2479 48.6092 30.2881Z" fill="#F2F2F2"/>
<path d="M145.967 7.1882C147.183 5.22834 146.463 2.42285 144.36 0.921969C142.257 -0.578916 139.566 -0.206847 138.351 1.75302C137.135 3.71288 137.855 6.51839 139.958 8.01928C142.061 9.52016 144.751 9.14806 145.967 7.1882Z" fill="#F2F2F2"/>
<path d="M99.8902 200.993C101.106 199.034 100.386 196.228 98.2832 194.727C96.18 193.226 93.4896 193.598 92.274 195.558C91.0584 197.518 91.7779 200.324 93.8811 201.825C95.9842 203.325 98.6746 202.953 99.8902 200.993Z" fill="#E6E6E6"/>
<path d="M63.2639 112.69C60.8097 112.682 58.4442 111.705 56.6196 109.944C54.795 108.183 53.6393 105.763 53.3734 103.146L47.6776 46.4041C47.3978 43.5868 48.1712 40.7655 49.8282 38.5591C51.4853 36.3527 53.8906 34.9416 56.5164 34.6351L225.638 15.1023C228.265 14.802 230.895 15.6315 232.952 17.4089C235.009 19.1863 236.325 21.7663 236.61 24.583L242.306 81.325C242.586 84.1424 241.813 86.9638 240.155 89.1703C238.498 91.3767 236.093 92.788 233.467 93.0944L64.3455 112.627C63.9863 112.669 63.6252 112.69 63.2639 112.69Z" fill="#E6E6E6"/>
<path d="M223.775 17.7365C223.458 17.7366 223.14 17.755 222.824 17.7915L59.8001 36.62C58.6602 36.7517 57.5556 37.1229 56.5494 37.7124C55.5432 38.302 54.6552 39.0983 53.9359 40.056C53.2167 41.0137 52.6803 42.114 52.3575 43.294C52.0347 44.4741 51.9317 45.7108 52.0545 46.9335L54.9343 75.6229C55.3998 80.2609 56.7124 84.7552 58.7972 88.849C60.882 92.9429 63.6981 96.5562 67.0847 99.4827C70.4714 102.409 74.3622 104.591 78.5351 105.905C82.708 107.218 87.0813 107.637 91.4051 107.138L206.038 93.8983C210.349 93.4005 214.526 91.9968 218.331 89.7673C222.136 87.5379 225.494 84.5264 228.214 80.9047C230.934 77.2831 232.963 73.1223 234.183 68.6599C235.404 64.1974 235.794 59.5207 235.329 54.8968L232.439 26.0998C232.208 23.806 231.197 21.6841 229.598 20.1408C228 18.5975 225.926 17.7414 223.775 17.7365Z" fill="white"/>
<path d="M189.445 47.594L98.3286 58.1175C98.0681 58.148 97.8045 58.1231 97.553 58.0442C97.3014 57.9653 97.0668 57.834 96.8626 57.6578C96.6584 57.4816 96.4886 57.2639 96.3629 57.0173C96.2372 56.7706 96.158 56.4998 96.13 56.2203C96.1019 55.9408 96.1255 55.6581 96.1994 55.3884C96.2733 55.1187 96.396 54.8673 96.5605 54.6485C96.7251 54.4297 96.9282 54.2478 97.1584 54.1133C97.3885 53.9788 97.6411 53.8942 97.9017 53.8645L189.018 43.3409C189.278 43.3105 189.542 43.3354 189.794 43.4143C190.045 43.4932 190.28 43.6245 190.484 43.8007C190.688 43.9769 190.858 44.1945 190.984 44.4412C191.109 44.6879 191.188 44.9587 191.217 45.2382C191.245 45.5177 191.221 45.8004 191.147 46.0701C191.073 46.3398 190.951 46.5912 190.786 46.81C190.621 47.0288 190.418 47.2107 190.188 47.3452C189.958 47.4797 189.705 47.5642 189.445 47.594Z" fill="#00FFF0"/>
<path d="M190.755 60.6468L99.6388 71.1703C99.113 71.2311 98.5863 71.0653 98.1745 70.7094C97.7626 70.3536 97.4995 69.8368 97.4429 69.2728C97.3862 68.7088 97.5408 68.1438 97.8726 67.7021C98.2043 67.2603 98.6861 66.978 99.2119 66.9173L190.328 56.3937C190.854 56.333 191.381 56.4988 191.793 56.8547C192.204 57.2105 192.468 57.7273 192.524 58.2913C192.581 58.8553 192.426 59.4203 192.094 59.862C191.763 60.3038 191.281 60.5861 190.755 60.6468Z" fill="#00FFF0"/>
<path d="M111.567 82.9965L100.949 84.2229C100.423 84.2836 99.8965 84.1178 99.4846 83.7619C99.0728 83.4061 98.8097 82.8893 98.753 82.3253C98.6964 81.7613 98.851 81.1963 99.1828 80.7546C99.5145 80.3128 99.9963 80.0305 100.522 79.9698L111.14 78.7435C111.401 78.713 111.664 78.7379 111.916 78.8168C112.168 78.8957 112.402 79.027 112.606 79.2032C112.811 79.3794 112.98 79.597 113.106 79.8437C113.232 80.0904 113.311 80.3612 113.339 80.6407C113.367 80.9202 113.343 81.2029 113.27 81.4726C113.196 81.7423 113.073 81.9937 112.908 82.2125C112.744 82.4313 112.541 82.6132 112.311 82.7477C112.08 82.8822 111.828 82.9668 111.567 82.9965Z" fill="#00FFF0"/>
<path d="M59.6788 48.7983C61.6611 48.7983 63.2681 47.0746 63.2681 44.9483C63.2681 42.8221 61.6611 41.0984 59.6788 41.0984C57.6966 41.0984 56.0896 42.8221 56.0896 44.9483C56.0896 47.0746 57.6966 48.7983 59.6788 48.7983Z" fill="#3F3D56"/>
<path d="M220.297 29.5484C222.279 29.5484 223.886 27.8247 223.886 25.6984C223.886 23.5722 222.279 21.8485 220.297 21.8485C218.314 21.8485 216.708 23.5722 216.708 25.6984C216.708 27.8247 218.314 29.5484 220.297 29.5484Z" fill="#3F3D56"/>
<path d="M171.772 108.587C171.442 108.276 171.181 107.891 171.007 107.458C170.834 107.026 170.752 106.557 170.769 106.087C170.949 100.494 170.09 94.9199 168.243 89.6872C168.086 89.2473 168.023 88.7756 168.057 88.3061C168.092 87.8367 168.224 87.3815 168.443 86.9735C168.653 86.5814 168.941 86.2434 169.285 85.9832C169.63 85.723 170.024 85.5469 170.439 85.4673C174.611 82.7669 178.887 82.0088 183.153 83.2145C183.841 83.1059 184.542 83.2638 185.131 83.6599C185.72 84.0561 186.158 84.6644 186.367 85.3758C188.094 91.3894 189.054 97.626 189.222 103.916C189.238 104.671 189 105.406 188.551 105.987C188.102 106.569 187.473 106.957 186.779 107.08L174.157 109.317C173.734 109.393 173.3 109.367 172.888 109.241C172.475 109.114 172.094 108.891 171.772 108.587Z" fill="#00FFF0"/>
<path d="M172.893 92.294L183.517 90.4113C183.604 90.3961 183.688 90.3625 183.763 90.3125C183.838 90.2625 183.903 90.197 183.955 90.1199C184.007 90.0428 184.044 89.9555 184.064 89.8631C184.084 89.7706 184.087 89.6748 184.072 89.5812C184.058 89.4875 184.026 89.3978 183.98 89.3172C183.933 89.2366 183.872 89.1667 183.8 89.1115C183.728 89.0563 183.646 89.0169 183.56 88.9955C183.474 88.9741 183.385 88.9712 183.297 88.9869L172.674 90.8695C172.498 90.9011 172.341 91.0062 172.237 91.1618C172.134 91.3173 172.092 91.5105 172.121 91.6991C172.15 91.8877 172.247 92.0563 172.392 92.1678C172.537 92.2793 172.717 92.3247 172.893 92.294Z" fill="white"/>
<path d="M173.771 97.9917L184.394 96.1091C184.57 96.0778 184.728 95.9729 184.832 95.8173C184.936 95.6616 184.978 95.4681 184.948 95.2792C184.919 95.0903 184.822 94.9215 184.676 94.81C184.531 94.6985 184.351 94.6534 184.175 94.6846L173.551 96.5673C173.464 96.5825 173.38 96.6161 173.305 96.6661C173.23 96.7161 173.164 96.7816 173.113 96.8587C173.061 96.9358 173.024 97.0231 173.004 97.1155C172.984 97.2079 172.981 97.3037 172.995 97.3974C173.01 97.4911 173.041 97.5808 173.088 97.6614C173.135 97.742 173.196 97.8119 173.268 97.8671C173.34 97.9223 173.421 97.9617 173.508 97.9831C173.594 98.0044 173.683 98.0074 173.771 97.9917Z" fill="white"/>
<path d="M174.648 103.689L185.272 101.807C185.448 101.776 185.605 101.671 185.709 101.515C185.813 101.359 185.855 101.166 185.826 100.977C185.797 100.788 185.699 100.619 185.554 100.508C185.409 100.396 185.228 100.351 185.052 100.382L174.429 102.265C174.341 102.28 174.258 102.314 174.183 102.364C174.108 102.414 174.043 102.48 173.991 102.557C173.94 102.634 173.903 102.721 173.883 102.813C173.863 102.906 173.86 103.001 173.874 103.095C173.889 103.188 173.92 103.278 173.967 103.358C174.014 103.439 174.075 103.509 174.146 103.564C174.218 103.619 174.3 103.659 174.386 103.68C174.472 103.702 174.561 103.705 174.648 103.689Z" fill="white"/>
</g>
<defs>
<clipPath id="clip0_4_149">
<rect width="328" height="303" fill="white"/>
</clipPath>
</defs>
</svg>
