<svg width="24" height="21" viewBox="0 0 24 21" fill="none" xmlns="http://www.w3.org/2000/svg">
<path d="M12 1.6875C14.2165 1.6875 16.3421 2.45792 17.9094 3.82928C19.4767 5.20064 20.3572 7.0606 20.3572 9C20.3572 12.09 17.8757 15.4575 12.9772 19.1385C12.7048 19.3432 12.3575 19.4557 11.9984 19.4554C11.6393 19.4551 11.2923 19.3422 11.0203 19.137L10.6963 18.891C6.0146 15.306 3.64288 12.021 3.64288 9C3.64288 7.0606 4.52337 5.20064 6.09063 3.82928C7.6579 2.45792 9.78357 1.6875 12 1.6875ZM12 6.1875C11.1475 6.1875 10.33 6.48382 9.72718 7.01126C9.12439 7.53871 8.78574 8.25408 8.78574 9C8.78574 9.74592 9.12439 10.4613 9.72718 10.9887C10.33 11.5162 11.1475 11.8125 12 11.8125C12.8525 11.8125 13.6701 11.5162 14.2729 10.9887C14.8757 10.4613 15.2143 9.74592 15.2143 9C15.2143 8.25408 14.8757 7.53871 14.2729 7.01126C13.6701 6.48382 12.8525 6.1875 12 6.1875Z" fill="#C8A117"/>
</svg>
