<svg width="62" height="57" viewBox="0 0 62 57" fill="none" xmlns="http://www.w3.org/2000/svg">
<path d="M43.9166 28.5C36.7866 28.5 31 33.82 31 40.375C31 46.93 36.7866 52.25 43.9166 52.25C51.0466 52.25 56.8333 46.93 56.8333 40.375C56.8333 33.82 51.0466 28.5 43.9166 28.5ZM48.1791 45.9562L42.625 40.85V33.25H45.2083V39.8763L49.9875 44.27L48.1791 45.9562ZM46.5 7.125H38.285C37.2 4.37 34.3583 2.375 31 2.375C27.6416 2.375 24.8 4.37 23.715 7.125H15.5C12.6583 7.125 10.3333 9.2625 10.3333 11.875V47.5C10.3333 50.1125 12.6583 52.25 15.5 52.25H31.2841C29.7558 50.8862 28.5124 49.2762 27.6158 47.5H15.5V11.875H20.6666V19H41.3333V11.875H46.5V23.94C48.3341 24.1775 50.065 24.6763 51.6666 25.365V11.875C51.6666 9.2625 49.3416 7.125 46.5 7.125ZM31 11.875C29.5791 11.875 28.4166 10.8062 28.4166 9.5C28.4166 8.19375 29.5791 7.125 31 7.125C32.4208 7.125 33.5833 8.19375 33.5833 9.5C33.5833 10.8062 32.4208 11.875 31 11.875Z" fill="#C8A117"/>
</svg>
