<svg width="52" height="49" viewBox="0 0 52 49" fill="none" xmlns="http://www.w3.org/2000/svg">
<path d="M39.4062 15.6953H33.3125V13.3984H18.0781V15.6953H11.9844C11.1224 15.6953 10.2958 16.018 9.68628 16.5923C9.07678 17.1666 8.73438 17.9456 8.73438 18.7578V34.6445C8.73438 35.4568 9.07678 36.2357 9.68628 36.81C10.2958 37.3844 11.1224 37.707 11.9844 37.707H39.4062C40.2682 37.707 41.0949 37.3844 41.7043 36.81C42.3138 36.2357 42.6562 35.4568 42.6562 34.6445V18.7578C42.6562 17.9456 42.3138 17.1666 41.7043 16.5923C41.0949 16.018 40.2682 15.6953 39.4062 15.6953ZM25.6945 35.9844C20.2638 35.9844 15.847 31.8194 15.847 26.7019C15.847 21.5845 20.2638 17.4195 25.6945 17.4195C31.1252 17.4195 35.5452 21.5845 35.5452 26.7019C35.5452 31.8194 31.1252 35.9813 25.6945 35.9813V35.9844ZM25.6945 20.4805C24.8274 20.4806 23.9687 20.6416 23.1676 20.9544C22.3665 21.2672 21.6387 21.7256 21.0256 22.3035C20.4125 22.8813 19.9262 23.5673 19.5945 24.3223C19.2627 25.0772 19.092 25.8864 19.0921 26.7035C19.0922 27.5206 19.2631 28.3297 19.5951 29.0846C19.927 29.8394 20.4135 30.5253 21.0267 31.103C21.64 31.6807 22.368 32.139 23.1691 32.4516C23.9703 32.7642 24.829 32.925 25.6961 32.9249C27.4476 32.9247 29.1273 32.2689 30.3656 31.1017C31.604 29.9345 32.2995 28.3516 32.2993 26.7012C32.2991 25.0507 31.6031 23.468 30.3645 22.3011C29.1258 21.1342 27.446 20.4787 25.6945 20.4789V20.4805Z" fill="white"/>
</svg>
