<svg width="21" height="22" viewBox="0 0 21 22" fill="none" xmlns="http://www.w3.org/2000/svg">
<path d="M7 4.58333H5.25C4.78587 4.58333 4.34075 4.77648 4.01256 5.1203C3.68437 5.46412 3.5 5.93043 3.5 6.41666V17.4167C3.5 17.9029 3.68437 18.3692 4.01256 18.713C4.34075 19.0568 4.78587 19.25 5.25 19.25H10.2349M15.75 12.8333V16.5H19.25M15.75 10.0833V6.41666C15.75 5.93043 15.5656 5.46412 15.2374 5.1203C14.9092 4.77648 14.4641 4.58333 14 4.58333H12.25" stroke="white" stroke-linecap="round" stroke-linejoin="round"/>
<path d="M7 10.0833H10.5M7 13.75H9.625M7 4.58333C7 4.0971 7.18437 3.63079 7.51256 3.28697C7.84075 2.94315 8.28587 2.75 8.75 2.75H10.5C10.9641 2.75 11.4092 2.94315 11.7374 3.28697C12.0656 3.63079 12.25 4.0971 12.25 4.58333C12.25 5.06956 12.0656 5.53588 11.7374 5.8797C11.4092 6.22351 10.9641 6.41667 10.5 6.41667H8.75C8.28587 6.41667 7.84075 6.22351 7.51256 5.8797C7.18437 5.53588 7 5.06956 7 4.58333ZM12.25 16.5C12.25 17.4725 12.6187 18.4051 13.2751 19.0927C13.9315 19.7804 14.8217 20.1667 15.75 20.1667C16.6783 20.1667 17.5685 19.7804 18.2249 19.0927C18.8813 18.4051 19.25 17.4725 19.25 16.5C19.25 15.5275 18.8813 14.5949 18.2249 13.9073C17.5685 13.2196 16.6783 12.8333 15.75 12.8333C14.8217 12.8333 13.9315 13.2196 13.2751 13.9073C12.6187 14.5949 12.25 15.5275 12.25 16.5Z" stroke="white" stroke-linecap="round" stroke-linejoin="round"/>
</svg>
