<svg width="216" height="192" viewBox="0 0 216 192" fill="none" xmlns="http://www.w3.org/2000/svg">
<path d="M36.0742 83.697C39.9811 83.697 43.1484 80.6308 43.1484 76.8485C43.1484 73.0662 39.9811 70 36.0742 70C32.1672 70 29 73.0662 29 76.8485C29 80.6308 32.1672 83.697 36.0742 83.697Z" fill="#FD6584"/>
<path d="M90.8559 119.034C90.6769 119.288 90.206 119.59 90.0225 119.841L90.2183 119.266L90.1516 119.133L89.7349 118.326L79.1258 97.6275L79.1218 97.6234L61.1372 62.5519V62.5478L60.7246 61.7451V61.741L51.8241 44.3828L51.4033 43.5598C51.7199 43.5679 52.0366 43.58 52.3533 43.5961L52.7783 44.4231L61.654 61.741L61.6581 61.7451L62.0707 62.5478V62.5519L79.5966 96.7319V96.7359L80.0093 97.5387V97.5427L90.6183 118.225L90.7599 118.503L90.8559 119.034Z" fill="#3F3D56"/>
<path d="M89.6724 62.5519H10.2756C10.4883 62.2816 10.7047 62.0113 10.9298 61.7451H89.0182C89.2433 62.0113 89.4597 62.2816 89.6724 62.5519Z" fill="#3F3D56"/>
<path d="M99.7313 96.7359C99.7063 97.0062 99.6772 97.2765 99.6396 97.5427H79.3008V96.7359H99.7313Z" fill="#3F3D56"/>
<path d="M13.2968 59.0866V124.002C13.0093 123.707 12.7342 123.409 12.4634 123.11V59.9782C12.7342 59.6797 13.0093 59.3811 13.2968 59.0866Z" fill="#3F3D56"/>
<path d="M90.4109 118.325H12.8801V119.132H90.4109V118.325Z" fill="#3F3D56"/>
<path d="M90.3433 119.034H90.4391V118.901C90.41 118.947 90.378 118.991 90.3433 119.034ZM89.7016 62.4529C89.4889 62.1826 89.2725 61.9124 89.0474 61.6461C84.6213 56.27 79.0612 51.8702 72.7384 48.7404C66.4157 45.6107 59.4758 43.8231 52.3825 43.4972C52.0659 43.481 51.7493 43.4689 51.4325 43.4609C50.9574 43.4488 50.4824 43.4407 50.0032 43.4407C43.1117 43.4371 36.2943 44.8169 29.9814 47.4928C23.6685 50.1688 17.9973 54.0828 13.3259 58.9877C13.0384 59.2822 12.7633 59.5807 12.4925 59.8792C11.9633 60.4561 11.4521 61.045 10.959 61.6461C10.734 61.9124 10.5175 62.1826 10.3048 62.4529C3.26291 71.3404 -0.369369 82.321 0.0297048 93.5153C0.428778 104.71 4.83439 115.422 12.4925 123.818C12.7633 124.117 13.0384 124.415 13.3259 124.71C18.3616 129.989 24.5498 134.115 31.4401 136.788C38.3305 139.461 45.7497 140.613 53.1579 140.161C60.5661 139.708 67.7769 137.663 74.2656 134.173C80.7544 130.683 86.3578 125.836 90.6682 119.986C90.8518 119.736 91.0351 119.486 91.2141 119.231C95.8352 112.75 98.7387 105.268 99.6688 97.4438C99.7065 97.1775 99.7355 96.9073 99.7606 96.637C99.9229 95.0637 100.005 93.4676 100.006 91.8486C100.019 81.2172 96.3956 70.8809 89.7016 62.4529ZM98.8314 97.4438C97.9243 104.954 95.1661 112.142 90.7891 118.404C90.6766 118.57 90.5599 118.735 90.4391 118.901C90.41 118.947 90.378 118.991 90.3433 119.034C90.3142 119.078 90.2808 119.122 90.2475 119.167C85.9968 125.046 80.4264 129.918 73.9538 133.417C67.4813 136.916 60.2746 138.951 52.8741 139.369C45.4736 139.787 38.0712 138.578 31.222 135.833C24.3728 133.087 18.2545 128.876 13.3258 123.515C13.0383 123.209 12.7592 122.902 12.4925 122.588C5.16519 114.23 1.04894 103.677 0.841612 92.7168C0.634281 81.7567 4.34863 71.0644 11.3549 62.4529C11.5758 62.1826 11.7966 61.9123 12.0257 61.6461C12.1759 61.4646 12.3299 61.2871 12.4925 61.1096C12.7592 60.7949 13.0383 60.4883 13.3258 60.1818C17.9291 55.1675 23.578 51.1547 29.9 48.4082C36.2221 45.6616 43.0737 44.2435 50.0032 44.2475C50.6241 44.2475 51.2408 44.2596 51.8533 44.2838C52.1741 44.2918 52.4909 44.308 52.8075 44.3241C59.589 44.6994 66.2163 46.4326 72.2705 49.4142C78.3247 52.3957 83.6741 56.5608 87.9806 61.6461C88.2097 61.9123 88.4307 62.1826 88.6514 62.4529C96.5143 72.1323 100.197 84.3846 98.9272 96.637C98.8979 96.9072 98.8688 97.1776 98.8314 97.4438ZM90.3433 119.034H90.4391V118.901C90.41 118.947 90.378 118.991 90.3433 119.034Z" fill="#CCCCCC"/>
<path d="M92.3564 66.5983C83.7148 64.9221 75.0456 63.4014 66.2712 62.4708C57.9513 61.5235 49.5614 61.2886 41.1989 61.769C33.6466 62.2621 26.0296 63.4186 18.9348 66.0549C13.4677 68.0864 7.63995 71.16 4.6868 76.2859C1.8401 81.227 2.9504 86.9251 6.0501 91.484C9.77968 96.9693 15.5954 100.728 21.6419 103.475C28.5263 106.603 35.8899 108.631 43.2629 110.355C47.0022 111.23 50.7618 112.02 54.5217 112.807C55.3061 112.971 55.6413 111.805 54.8541 111.64C47.2718 110.054 39.6677 108.463 32.2737 106.167C25.4314 104.042 18.4293 101.32 12.826 96.8583C8.29302 93.2489 3.98305 87.9768 4.25061 81.9826C4.52033 75.9399 9.75736 71.7209 14.8904 69.1239C21.3052 65.8785 28.5933 64.2976 35.7348 63.4714C43.912 62.5893 52.1585 62.4807 60.3574 63.1472C71.3151 63.9543 82.1107 65.8268 92.865 67.924" fill="black"/>
<path d="M51.7867 76.2219C55.4232 77.9815 57.6372 80.3055 57.6372 82.8545C57.6372 88.3456 47.3735 92.797 34.7128 92.797C29.2083 92.797 24.1583 91.9549 20.2065 90.5524C24.4038 92.5834 30.4967 93.8623 37.2804 93.8623C49.9411 93.8623 60.2047 89.4109 60.2047 83.9198C60.2047 80.8161 56.9242 78.0452 51.7867 76.2219Z" fill="#F1F1F1"/>
<path d="M59.8756 79.9937C63.9791 81.9792 66.4773 84.6016 66.4773 87.4778C66.4773 93.6739 54.896 98.6967 40.6098 98.6967C34.3986 98.6967 28.7003 97.7465 24.2412 96.164C28.9774 98.4558 35.8525 99.8988 43.507 99.8988C57.7931 99.8988 69.3744 94.8759 69.3744 88.6799C69.3744 85.1777 65.6728 82.0511 59.8756 79.9937Z" fill="#F1F1F1"/>
<path d="M48.6909 77.8833C51.2529 79.123 52.8128 80.7603 52.8128 82.5562C52.8128 86.4248 45.5817 89.5609 36.662 89.5609C33.1869 89.6044 29.7299 89.0695 26.4419 87.9795C29.399 89.4104 33.6916 90.3114 38.4708 90.3114C47.3906 90.3114 54.6217 87.1753 54.6217 83.3067C54.6216 81.12 52.3104 79.1679 48.6909 77.8833Z" fill="#F1F1F1"/>
<path d="M100.736 69.5491C98.9389 68.3237 96.9098 67.4531 94.7648 66.9868C92.6199 66.5206 90.4011 66.4679 88.2352 66.8318C86.0692 67.1957 83.9985 67.9691 82.1413 69.1077C80.284 70.2464 78.6766 71.728 77.4108 73.468C72.0876 80.7858 66.746 99.975 70.5166 111.091C81.7633 99.5907 99.0416 98.3957 104.784 92.1304C110.921 85.4357 108.295 74.7026 100.736 69.5491Z" fill="#63C2FF"/>
<path d="M90.8699 86.1198C93.8851 86.1198 96.3294 83.7535 96.3294 80.8345C96.3294 77.9155 93.8851 75.5492 90.8699 75.5492C87.8547 75.5492 85.4104 77.9155 85.4104 80.8345C85.4104 83.7535 87.8547 86.1198 90.8699 86.1198Z" fill="white"/>
<path d="M65.9015 116.847C67.8764 116.847 69.4774 115.297 69.4774 113.386C69.4774 111.474 67.8764 109.924 65.9015 109.924C63.9266 109.924 62.3257 111.474 62.3257 113.386C62.3257 115.297 63.9266 116.847 65.9015 116.847Z" fill="#63C2FF"/>
<path opacity="0.2" d="M96.7109 79.615C97.0724 80.2144 97.3084 80.8768 97.4055 81.5645C97.5025 82.2521 97.4587 82.9516 97.2765 83.6229C97.0943 84.2942 96.7774 84.9241 96.3437 85.4768C95.9101 86.0295 95.3682 86.4941 94.7491 86.8441C94.1299 87.194 93.4457 87.4225 92.7353 87.5165C92.025 87.6104 91.3025 87.568 90.6091 87.3917C89.9157 87.2153 89.2649 86.9084 88.694 86.4886C88.1231 86.0688 87.6432 85.5442 87.2817 84.9448C88.2562 85.7725 89.5031 86.2373 90.7993 86.2562C92.0955 86.2752 93.3563 85.8469 94.3561 85.0481C95.356 84.2493 96.0295 83.1321 96.2562 81.8964C96.4829 80.6608 96.2479 79.3874 95.5934 78.3041C96.0365 78.6798 96.4139 79.1225 96.7109 79.615Z" fill="#231F20"/>
<path opacity="0.2" d="M104.795 92.1553C99.0519 98.4206 81.7736 99.6157 70.5269 111.116C70.1759 110.065 69.9057 108.989 69.7185 107.899C80.9596 97.4435 97.276 96.1222 102.824 90.0688C107.79 84.6509 107.017 76.5885 102.536 70.9786C108.682 76.4946 110.418 86.0202 104.795 92.1553Z" fill="#231F20"/>
<path d="M163.67 187.759H159.595L157.656 172.542H163.671L163.67 187.759Z" fill="#FFB6B6"/>
<path d="M164.709 191.583L151.569 191.583V191.422C151.569 190.109 152.108 188.849 153.067 187.921C154.026 186.992 155.327 186.471 156.684 186.471H156.684L159.084 184.708L163.563 186.471L164.71 186.471L164.709 191.583Z" fill="#2F2E41"/>
<path d="M147.878 185.273L143.902 186.142L138.549 171.712L144.416 170.429L147.878 185.273Z" fill="#FFB6B6"/>
<path d="M149.762 188.782L136.944 191.583L136.907 191.426C136.609 190.146 136.848 188.802 137.572 187.692C138.296 186.582 139.447 185.795 140.77 185.506L140.77 185.506L142.71 183.275L147.48 184.039L148.599 183.795L149.762 188.782Z" fill="#2F2E41"/>
<path d="M168.831 94.7283C170.742 100.307 170.54 106.363 168.372 112.862L167.445 149.454C168.977 151.087 169.939 157.742 167.579 162.508C164.427 168.872 166.598 177.673 164.371 181.895H157.909L156.321 164.706L154.922 162.767L154.71 147.263C153.851 145.296 152.857 143.345 154.602 141.066L154.556 138.373L154.308 124.017L144.563 137.813C144.286 140.935 142.637 142.571 140.454 143.629L143.473 156.524C148.751 160.898 147.46 167.667 147.547 173.934L149.278 181.329L141.325 182.017L137.816 171.989L133.87 165.809L127.007 141.104L131.793 130.35L133.749 125.955L144.673 101.411L168.831 94.7283Z" fill="#2F2E41"/>
<path d="M101.318 74.8322C101.637 75.1401 102.021 75.3767 102.444 75.5252C102.867 75.6737 103.319 75.7305 103.768 75.6918C104.216 75.653 104.65 75.5195 105.04 75.3007C105.429 75.0819 105.764 74.7831 106.021 74.4254L116.556 77.2922L114.827 72.0477L105.088 70.1293C104.438 69.7509 103.668 69.6162 102.923 69.7509C102.178 69.8855 101.51 70.28 101.045 70.8597C100.58 71.4394 100.352 72.164 100.402 72.8961C100.452 73.6283 100.778 74.3171 101.318 74.8322Z" fill="#FFB8B8"/>
<path d="M109.934 70.5963L120.217 70.5233C122.99 69.7728 125.913 69.7087 128.719 70.3369L129.264 70.4591L133.556 69.9879C136.114 65.0371 140.861 60.5611 147.234 56.4377C148.195 55.6879 149.309 55.1436 150.503 54.8407C151.697 54.5378 152.944 54.4831 154.161 54.6803C155.378 54.8774 156.539 55.3219 157.566 55.9846C158.593 56.6472 159.464 57.5129 160.12 58.5247C161.306 60.3564 161.723 62.5574 161.287 64.6773C160.85 66.7971 159.594 68.6753 157.774 69.9274L138.355 80.9802C136.651 81.9499 134.716 82.4736 132.74 82.4996L132.693 82.5233L121.615 78.5054L115.917 77.8034L108.19 75.6294L109.934 70.5963Z" fill="#63C2FF"/>
<path d="M151.189 47.3662C156.547 47.3662 160.891 43.1612 160.891 37.9741C160.891 32.7869 156.547 28.5819 151.189 28.5819C145.831 28.5819 141.487 32.7869 141.487 37.9741C141.487 43.1612 145.831 47.3662 151.189 47.3662Z" fill="#FFB8B8"/>
<path d="M160.249 43.9307C160.968 42.9374 161.478 41.3466 161.78 40.1839C162.183 38.6529 162.249 37.057 161.974 35.4996C161.699 33.9422 161.09 32.4581 160.184 31.1435C159.85 30.6077 159.372 30.1703 158.8 29.8784C158.213 29.6247 157.439 29.6851 157.03 30.1651C157.028 29.7439 156.938 29.3275 156.764 28.9415C156.59 28.5554 156.336 28.208 156.018 27.9206C155.377 27.3491 154.607 26.9301 153.769 26.6967C152.156 26.2204 150.439 26.1758 148.801 26.5678C147.163 26.9598 145.666 27.7738 144.467 28.9232C143.999 29.3844 144.166 27.08 143.646 27.4859C143.143 27.922 142.483 28.1499 141.808 28.1209C141.144 28.0524 139.922 30.3437 139.915 29.6971C139.216 30.3749 138.908 33.2335 139.127 34.1674C139.346 35.1013 142.597 34.6886 143.529 35.0087C144.147 35.2207 144.818 35.2278 145.457 35.3659C146.594 35.6503 147.585 36.3279 148.241 37.2708C148.897 38.2137 149.174 39.3566 149.02 40.4837C149.429 39.9511 149.924 39.4859 150.486 39.1062C150.77 38.9188 151.095 38.7995 151.436 38.7583C151.776 38.7172 152.122 38.7553 152.444 38.8696C152.735 39.0207 152.991 39.2277 153.196 39.478C153.401 39.7283 153.551 40.0165 153.637 40.325C153.849 40.9289 153.931 41.57 154.147 42.1725C154.78 43.9406 155.106 45.7966 156.87 46.2158C158.262 46.5467 159.268 45.287 160.249 43.9307Z" fill="#2F2E41"/>
<path d="M169.659 92.8664L168.594 90.8039C167.29 82.9831 166.002 75.6885 167.752 69.1271C167.862 63.3991 166.033 58.0179 160.956 55.0794L158.665 53.7531L157.505 50.9058L146.828 51.1583L146.797 54.8908L142.973 60.7952V60.8195L143.212 92.9485L144.267 96.2642L142.674 100.121L143.52 102.582L164.569 99.3244L167.017 98.9442C167.299 98.8566 167.572 98.7414 167.831 98.6004C168.709 98.1282 169.397 97.3835 169.785 96.4863C169.807 96.4346 169.826 96.3859 169.845 96.3342C170.01 95.9154 170.105 95.4739 170.128 95.0261C170.166 94.2792 170.005 93.5354 169.659 92.8664Z" fill="#63C2FF"/>
<path opacity="0.2" d="M170.127 95.0262C170.105 95.4739 170.01 95.9154 169.845 96.3342L167.83 98.6004C167.572 98.7415 167.299 98.8566 167.017 98.9442L164.569 99.3244L168.11 92.8786L160.327 76.3821L170.127 95.0262Z" fill="black"/>
<path d="M178.599 114.106C178.208 113.849 177.881 113.511 177.639 113.117C177.398 112.723 177.249 112.283 177.202 111.827C177.155 111.372 177.213 110.912 177.37 110.48C177.526 110.048 177.779 109.654 178.11 109.327L172.987 99.3626L178.918 100.062L182.874 109.417C183.404 109.992 183.699 110.735 183.702 111.506C183.704 112.277 183.415 113.022 182.888 113.6C182.361 114.178 181.633 114.549 180.843 114.642C180.052 114.736 179.254 114.545 178.599 114.106Z" fill="#FFB8B8"/>
<path d="M157.831 79.8211L161.717 79.3014C161.717 79.3014 162.093 84.9737 163.951 85.8334C165.81 86.693 165.184 86.8345 165.403 87.7445C165.622 88.6545 166.614 90.0297 168.087 90.6568C169.559 91.2838 176.257 107.052 176.257 107.052L181.897 105.778C181.375 104.409 181.032 102.983 180.874 101.532C180.676 99.3375 178.108 94.1604 177.262 93.3918C176.416 92.6233 176.75 91.2685 176.312 89.4485C175.873 87.6284 176.178 89.3161 175.447 86.2827C174.716 83.2493 166.502 65.0703 166.157 62.2695C165.813 59.4688 161.782 57.8202 161.782 57.8202L158.649 58.5276L157.831 79.8211Z" fill="#63C2FF"/>
<path d="M93.2888 192H215.608C215.712 192 215.812 191.96 215.885 191.889C215.959 191.818 216 191.721 216 191.621C216 191.52 215.959 191.424 215.885 191.352C215.812 191.281 215.712 191.241 215.608 191.241H93.2888C93.1849 191.241 93.0852 191.281 93.0117 191.352C92.9383 191.424 92.897 191.52 92.897 191.621C92.897 191.721 92.9383 191.818 93.0117 191.889C93.0852 191.96 93.1849 192 93.2888 192Z" fill="#CCCCCC"/>
</svg>
