<svg width="29" height="31" viewBox="0 0 29 31" fill="none" xmlns="http://www.w3.org/2000/svg">
<path d="M10.875 27.125H18.125M10.875 27.125V20.6667M10.875 27.125H4.35C4.15772 27.125 3.97331 27.0433 3.83735 26.898C3.70138 26.7527 3.625 26.5555 3.625 26.35V21.4417C3.625 21.2361 3.70138 21.039 3.83735 20.8937C3.97331 20.7483 4.15772 20.6667 4.35 20.6667H10.875M18.125 27.125V11.625M18.125 27.125H24.65C24.8423 27.125 25.0267 27.0433 25.1627 26.898C25.2986 26.7527 25.375 26.5555 25.375 26.35V4.65C25.375 4.44446 25.2986 4.24733 25.1627 4.10199C25.0267 3.95665 24.8423 3.875 24.65 3.875H18.85C18.6577 3.875 18.4733 3.95665 18.3373 4.10199C18.2014 4.24733 18.125 4.44446 18.125 4.65V11.625M10.875 20.6667V12.4C10.875 12.1945 10.9514 11.9973 11.0873 11.852C11.2233 11.7067 11.4077 11.625 11.6 11.625H18.125" stroke="black" stroke-width="2.5"/>
</svg>
