<svg width="49" height="50" viewBox="0 0 49 50" fill="none" xmlns="http://www.w3.org/2000/svg">
<path d="M40.8333 25C40.3425 25.0036 39.8563 25.0974 39.3981 25.2771L34.5021 21.1875C34.6226 20.7417 34.7083 20.2792 34.7083 19.7917C34.7083 16.9042 32.4339 14.5833 29.6042 14.5833C26.7744 14.5833 24.5 16.9042 24.5 19.7917C24.5 20.6167 24.7042 21.3854 25.0349 22.0771L19.0957 29.2396C18.858 29.1942 18.6169 29.1698 18.375 29.1667C18.0096 29.1667 17.6645 29.2292 17.3297 29.3208L12.0969 23.9812C12.1888 23.6417 12.25 23.2896 12.25 22.9167C12.25 20.6083 10.4288 18.75 8.16668 18.75C5.90451 18.75 4.08334 20.6083 4.08334 22.9167C4.08334 25.225 5.90451 27.0833 8.16668 27.0833C8.53214 27.0833 8.87718 27.0208 9.21201 26.9292L14.4448 32.2687C14.3467 32.6149 14.2951 32.973 14.2917 33.3333C14.2917 35.6417 16.1128 37.5 18.375 37.5C20.6372 37.5 22.4583 35.6417 22.4583 33.3333C22.4583 32.8396 22.3603 32.375 22.2072 31.9354L28.1546 24.7646C28.618 24.9021 29.0978 25 29.6042 25C30.4099 24.9954 31.2029 24.7947 31.9174 24.4146L36.8153 28.5042C36.7769 28.723 36.7551 28.9444 36.75 29.1667C36.75 31.475 38.5712 33.3333 40.8333 33.3333C43.0955 33.3333 44.9167 31.475 44.9167 29.1667C44.9167 26.8583 43.0955 25 40.8333 25Z" fill="black"/>
</svg>
