<svg width="42" height="40" viewBox="0 0 42 40" fill="none" xmlns="http://www.w3.org/2000/svg">
<g clip-path="url(#clip0_1_62)">
<path fill-rule="evenodd" clip-rule="evenodd" d="M26.25 3.33333C26.8644 3.33335 27.4679 3.48738 28 3.77994C28.532 4.0725 28.9738 4.49328 29.281 5H31.5C32.4283 5 33.3185 5.35119 33.9749 5.97631C34.6313 6.60143 35 7.44928 35 8.33333V28.3333C35 30.5435 34.0781 32.6631 32.4372 34.2259C30.7962 35.7887 28.5706 36.6667 26.25 36.6667H10.5C9.57174 36.6667 8.6815 36.3155 8.02513 35.6904C7.36875 35.0652 7 34.2174 7 33.3333V8.33333C7 7.44928 7.36875 6.60143 8.02513 5.97631C8.6815 5.35119 9.57174 5 10.5 5H12.719C13.0262 4.49328 13.468 4.0725 14.0001 3.77994C14.5321 3.48738 15.1356 3.33335 15.75 3.33333H26.25ZM12.25 8.33333H10.5V33.3333H26.25C27.6424 33.3333 28.9777 32.8065 29.9623 31.8689C30.9469 30.9312 31.5 29.6594 31.5 28.3333V8.33333H29.75C29.75 9.21739 29.3813 10.0652 28.7249 10.6904C28.0685 11.3155 27.1783 11.6667 26.25 11.6667H15.75C14.8217 11.6667 13.9315 11.3155 13.2751 10.6904C12.6187 10.0652 12.25 9.21739 12.25 8.33333ZM28.4165 15.6317C28.7446 15.9442 28.9289 16.3681 28.9289 16.81C28.9289 17.2519 28.7446 17.6758 28.4165 17.9883L19.754 26.2383C19.4258 26.5508 18.9808 26.7263 18.5168 26.7263C18.0527 26.7263 17.6077 26.5508 17.2795 26.2383L13.5695 22.7017C13.2584 22.3861 13.0883 21.9677 13.0954 21.5349C13.1025 21.1021 13.286 20.6888 13.6073 20.3827C13.9286 20.0765 14.3623 19.9013 14.8168 19.8943C15.2712 19.8873 15.7107 20.0489 16.0422 20.345L18.5185 22.7017L25.942 15.6317C26.2702 15.3192 26.7152 15.1437 27.1793 15.1437C27.6433 15.1437 28.0883 15.3192 28.4165 15.6317ZM26.25 6.66667H15.75V8.33333H26.25V6.66667Z" fill="white"/>
</g>
<defs>
<clipPath id="clip0_1_62">
<rect width="42" height="40" fill="white"/>
</clipPath>
</defs>
</svg>
