<svg width="33" height="30" viewBox="0 0 33 30" fill="none" xmlns="http://www.w3.org/2000/svg">
<path d="M26.8125 28.375H27.0625V28.125V23.4375C27.0625 21.6226 26.2692 19.8875 24.8663 18.6121C23.4643 17.3375 21.5673 16.625 19.5938 16.625H13.4062C11.4327 16.625 9.53574 17.3375 8.13366 18.6121C6.73077 19.8875 5.9375 21.6226 5.9375 23.4375V28.125V28.375H6.1875H8.25H8.5V28.125V23.4375C8.5 22.2687 9.01052 21.1424 9.9284 20.3079C10.8471 19.4728 12.0977 19 13.4062 19H19.5938C20.2412 19 20.8818 19.116 21.4789 19.3408C22.0759 19.5656 22.6169 19.8946 23.0716 20.3079C23.5262 20.7212 23.8854 21.2106 24.13 21.7473C24.3745 22.284 24.5 22.8582 24.5 23.4375V28.125V28.375H24.75H26.8125ZM16.5 4C17.4754 4 18.4272 4.26304 19.2349 4.75366C20.0424 5.24417 20.6679 5.93898 21.0363 6.74733C21.4044 7.55527 21.5002 8.4427 21.313 9.29855C21.1256 10.1547 20.6625 10.9447 19.9779 11.5671C19.293 12.1897 18.4176 12.616 17.4614 12.7889C16.5053 12.9618 15.5143 12.8729 14.6149 12.5342C13.7155 12.1956 12.9505 11.6234 12.4142 10.8937C11.8781 10.1643 11.5938 9.30954 11.5938 8.4375C11.5938 7.26871 12.1043 6.14236 13.0221 5.30792C13.9408 4.47276 15.1915 4 16.5 4ZM16.5 1.625C15.0278 1.625 13.5871 2.02176 12.3597 2.76731C11.1321 3.51296 10.1716 4.57516 9.60325 5.82248C9.03474 7.07021 8.88551 8.44478 9.17573 9.77122C9.4659 11.0974 10.1814 12.3119 11.2274 13.2629C12.2732 14.2136 13.6029 14.8587 15.0472 15.1199C16.4915 15.3811 17.9888 15.2472 19.3506 14.7344C20.7125 14.2216 21.8802 13.3518 22.7036 12.2315C23.5273 11.1108 23.9688 9.7905 23.9688 8.4375C23.9688 6.62261 23.1755 4.88747 21.7726 3.61213C20.3705 2.3375 18.4736 1.625 16.5 1.625Z" fill="black" stroke="black" stroke-width="0.5"/>
</svg>
