<svg width="16" height="16" viewBox="0 0 16 16" fill="none" xmlns="http://www.w3.org/2000/svg">
<g clip-path="url(#clip0_31_56)">
<path d="M0.341475 7.90425C0.3411 9.24856 0.6951 10.5612 1.36822 11.7181L0.2771 15.6711L4.3541 14.6104C5.48174 15.2195 6.74519 15.5387 8.0291 15.5388H8.03247C12.2709 15.5388 15.7211 12.1166 15.7229 7.91026C15.7237 5.872 14.9245 3.95535 13.4724 2.51336C12.0205 1.0715 10.0895 0.277023 8.03216 0.276093C3.79323 0.276093 0.343287 3.69811 0.341537 7.90425" fill="url(#paint0_linear_31_56)"/>
<path d="M0.066875 7.90177C0.0664375 9.29445 0.433125 10.654 1.13025 11.8524L0 15.9471L4.22319 14.8484C5.38681 15.4779 6.69694 15.8098 8.03006 15.8103H8.0335C12.424 15.8103 15.9981 12.265 16 7.90809C16.0007 5.79659 15.1727 3.81104 13.6687 2.3174C12.1646 0.823938 10.1646 0.000868217 8.0335 0C3.64225 0 0.068625 3.54481 0.066875 7.90177ZM2.58188 11.646L2.42419 11.3976C1.76131 10.3518 1.41144 9.14326 1.41194 7.90226C1.41338 4.28087 4.38363 1.33457 8.036 1.33457C9.80475 1.33532 11.467 2.01947 12.7172 3.26078C13.9674 4.5022 14.6554 6.15243 14.6549 7.9076C14.6533 11.529 11.683 14.4757 8.0335 14.4757H8.03088C6.84256 14.475 5.67712 14.1584 4.66075 13.56L4.41888 13.4177L1.91275 14.0696L2.58188 11.646V11.646Z" fill="url(#paint1_linear_31_56)"/>
<path d="M6.04247 4.59832C5.89335 4.26946 5.73641 4.26282 5.5946 4.25705C5.47847 4.25209 5.34572 4.25246 5.2131 4.25246C5.08035 4.25246 4.86466 4.30201 4.68235 4.49953C4.49985 4.69724 3.9856 5.17501 3.9856 6.14673C3.9856 7.11851 4.69891 8.05761 4.79835 8.18952C4.89791 8.32118 6.17541 10.3791 8.19866 11.1708C9.88016 11.8287 10.2223 11.6979 10.5873 11.6649C10.9523 11.632 11.765 11.1872 11.9308 10.726C12.0968 10.2649 12.0968 9.86958 12.047 9.78697C11.9973 9.70468 11.8645 9.65525 11.6655 9.55652C11.4663 9.45773 10.4877 8.97991 10.3053 8.91398C10.1228 8.84812 9.9901 8.81525 9.85735 9.01302C9.7246 9.21048 9.34341 9.65525 9.22722 9.78697C9.11116 9.91901 8.99497 9.93544 8.79597 9.83665C8.59678 9.73755 7.95572 9.52924 7.19516 8.85643C6.60341 8.3329 6.20391 7.68639 6.08778 7.48862C5.97166 7.29116 6.07535 7.18412 6.17516 7.0857C6.2646 6.99721 6.37428 6.85507 6.47391 6.73978C6.57316 6.62443 6.60628 6.54214 6.67266 6.41042C6.7391 6.27857 6.70585 6.16322 6.65616 6.06443C6.60628 5.96564 6.21947 4.98884 6.04247 4.59832Z" fill="white"/>
</g>
<defs>
<linearGradient id="paint0_linear_31_56" x1="772.568" y1="1539.78" x2="772.568" y2="0.276093" gradientUnits="userSpaceOnUse">
<stop stop-color="#1FAF38"/>
<stop offset="1" stop-color="#60D669"/>
</linearGradient>
<linearGradient id="paint1_linear_31_56" x1="800" y1="1594.71" x2="800" y2="0" gradientUnits="userSpaceOnUse">
<stop stop-color="#F9F9F9"/>
<stop offset="1" stop-color="white"/>
</linearGradient>
<clipPath id="clip0_31_56">
<rect width="16" height="16" fill="white"/>
</clipPath>
</defs>
</svg>
