<svg width="285" height="162" viewBox="0 0 285 162" fill="none" xmlns="http://www.w3.org/2000/svg">
<g clip-path="url(#clip0_36_198)">
<path opacity="0.1" d="M102.889 121.205C156.824 121.205 200.546 120.036 200.546 118.593C200.546 117.151 156.824 115.982 102.889 115.982C48.9544 115.982 5.23169 117.151 5.23169 118.593C5.23169 120.036 48.9544 121.205 102.889 121.205Z" fill="#63C2FF"/>
<g opacity="0.7">
<path d="M66.5167 99.3154H35.376V116.479H66.5167V99.3154Z" fill="#65617D"/>
<path opacity="0.1" d="M55.8042 102.3H46.3374V104.29H55.8042V102.3Z" fill="black"/>
<path opacity="0.1" d="M54.6208 102.549H47.5208V104.042H54.6208V102.549Z" fill="black"/>
<path d="M98.1556 99.3154H67.0149V116.479H98.1556V99.3154Z" fill="#65617D"/>
<path opacity="0.1" d="M87.4433 102.3H77.9766V104.29H87.4433V102.3Z" fill="black"/>
<path opacity="0.1" d="M86.26 102.549H79.1599V104.042H86.26V102.549Z" fill="black"/>
<path d="M66.5167 81.6542H35.376V98.8179H66.5167V81.6542Z" fill="#65617D"/>
<path opacity="0.1" d="M55.8042 84.6392H46.3374V86.6292H55.8042V84.6392Z" fill="black"/>
<path opacity="0.1" d="M54.6208 84.8879H47.5208V86.3804H54.6208V84.8879Z" fill="black"/>
<path d="M98.1556 81.6542H67.0149V98.8179H98.1556V81.6542Z" fill="#65617D"/>
<path opacity="0.1" d="M87.4433 84.6392H77.9766V86.6292H87.4433V84.6392Z" fill="black"/>
<path opacity="0.1" d="M86.26 84.8879H79.1599V86.3804H86.26V84.8879Z" fill="black"/>
<path d="M66.5167 63.7443H35.376V80.908H66.5167V63.7443Z" fill="#65617D"/>
<path opacity="0.1" d="M55.8042 66.7293H46.3374V68.7193H55.8042V66.7293Z" fill="black"/>
<path opacity="0.1" d="M54.6208 66.978H47.5208V68.4705H54.6208V66.978Z" fill="black"/>
<path d="M98.1556 63.7443H67.0149V80.908H98.1556V63.7443Z" fill="#65617D"/>
<path opacity="0.1" d="M87.4433 66.7293H77.9766V68.7193H87.4433V66.7293Z" fill="black"/>
<path opacity="0.1" d="M86.26 66.978H79.1599V68.4705H86.26V66.978Z" fill="black"/>
<path d="M98.1556 45.8344H67.0149V62.9981H98.1556V45.8344Z" fill="#65617D"/>
<path opacity="0.1" d="M87.4433 48.8194H77.9766V50.8094H87.4433V48.8194Z" fill="black"/>
<path opacity="0.1" d="M86.26 49.0681H79.1599V50.5606H86.26V49.0681Z" fill="black"/>
</g>
<g opacity="0.7">
<path d="M129.795 99.0666H98.6538V116.23H129.795V99.0666Z" fill="#65617D"/>
<path opacity="0.1" d="M119.082 102.052H109.615V104.042H119.082V102.052Z" fill="black"/>
<path opacity="0.1" d="M117.899 102.3H110.799V103.793H117.899V102.3Z" fill="black"/>
<path d="M161.433 99.0666H130.293V116.23H161.433V99.0666Z" fill="#65617D"/>
<path opacity="0.1" d="M150.721 102.052H141.254V104.042H150.721V102.052Z" fill="black"/>
<path opacity="0.1" d="M149.538 102.3H142.438V103.793H149.538V102.3Z" fill="black"/>
<path d="M129.795 81.4055H98.6538V98.5691H129.795V81.4055Z" fill="#65617D"/>
<path opacity="0.1" d="M119.082 84.3904H109.615V86.3804H119.082V84.3904Z" fill="black"/>
<path opacity="0.1" d="M117.899 84.6392H110.799V86.1317H117.899V84.6392Z" fill="black"/>
<path d="M161.433 81.4055H130.293V98.5691H161.433V81.4055Z" fill="#65617D"/>
<path opacity="0.1" d="M150.721 84.3904H141.254V86.3804H150.721V84.3904Z" fill="black"/>
<path opacity="0.1" d="M149.538 84.6392H142.438V86.1317H149.538V84.6392Z" fill="black"/>
<path d="M129.795 63.4956H98.6538V80.6592H129.795V63.4956Z" fill="#65617D"/>
<path opacity="0.1" d="M119.082 66.4805H109.615V68.4705H119.082V66.4805Z" fill="black"/>
<path opacity="0.1" d="M117.899 66.7293H110.799V68.2218H117.899V66.7293Z" fill="black"/>
<path d="M161.433 63.4956H130.293V80.6592H161.433V63.4956Z" fill="#65617D"/>
<path opacity="0.1" d="M150.721 66.4805H141.254V68.4705H150.721V66.4805Z" fill="black"/>
<path opacity="0.1" d="M149.538 66.7293H142.438V68.2218H149.538V66.7293Z" fill="black"/>
<path d="M161.433 45.5857H130.293V62.7493H161.433V45.5857Z" fill="#65617D"/>
<path opacity="0.1" d="M150.721 48.5706H141.254V50.5606H150.721V48.5706Z" fill="black"/>
<path opacity="0.1" d="M149.538 48.8194H142.438V50.3119H149.538V48.8194Z" fill="black"/>
</g>
<path d="M55.8516 160.383C61.384 160.383 65.8689 159.626 65.8689 158.692C65.8689 157.757 61.384 157 55.8516 157C50.3192 157 45.8342 157.757 45.8342 158.692C45.8342 159.626 50.3192 160.383 55.8516 160.383Z" fill="#63C2FF"/>
<path d="M59.9945 155.926C60.4519 155.554 60.7847 155.051 60.9486 154.485C61.0732 153.916 60.8291 153.242 60.281 153.02C59.6681 152.786 59.0129 153.212 58.5172 153.64C58.0214 154.067 57.4509 154.557 56.8032 154.465C57.137 154.163 57.3867 153.779 57.5281 153.351C57.6696 152.924 57.6979 152.467 57.6104 152.025C57.582 151.842 57.5045 151.67 57.3861 151.528C57.0448 151.165 56.4295 151.319 56.0209 151.605C54.7255 152.515 54.3643 154.274 54.3568 155.853C54.2272 155.284 54.3368 154.689 54.3344 154.112C54.3319 153.535 54.1699 152.868 53.6742 152.562C53.3684 152.398 53.0247 152.318 52.6777 152.329C52.0972 152.306 51.447 152.366 51.0509 152.791C50.5526 153.319 50.6847 154.204 51.1132 154.781C51.5417 155.358 52.1969 155.729 52.7997 156.13C53.282 156.417 53.6933 156.809 54.003 157.276C54.0403 157.342 54.0704 157.411 54.0927 157.483H57.7449C58.5617 157.067 59.3184 156.544 59.9945 155.926Z" fill="#63C2FF"/>
<path d="M178.713 85.0745C178.692 84.8861 178.625 84.7058 178.517 84.5502C178.408 84.3946 178.262 84.2687 178.093 84.184C177.95 84.1231 177.796 84.0916 177.64 84.0914C177.485 84.0911 177.331 84.1221 177.188 84.1824C177.045 84.2428 176.915 84.3312 176.807 84.4426C176.699 84.554 176.614 84.686 176.558 84.8307L171.025 96.4548L169.779 142.224H171.772L172.52 96.5567L178.608 85.7959C178.718 85.5724 178.755 85.32 178.713 85.0745Z" fill="#3F3D56"/>
<path opacity="0.1" d="M267.95 152.562C266.318 153.987 264.56 155.262 262.698 156.371C262.669 156.412 262.637 156.45 262.601 156.485C262.404 156.653 262.169 156.77 261.916 156.829C255.742 160.264 248.784 162.048 241.717 162.007H104.743C89.0476 160.396 79.4712 158.259 79.4712 155.913C79.4712 154.095 85.221 152.401 95.1213 150.983C96.1477 150.834 97.2181 150.689 98.3325 150.55C99.0184 150.464 99.7201 150.381 100.438 150.301L101.656 150.16C102.559 150.057 103.487 149.956 104.439 149.859H104.516L105.512 149.759C106.354 149.672 107.214 149.59 108.091 149.51L108.729 149.453L110.355 149.309C111.412 149.214 112.491 149.124 113.594 149.038C114.509 148.966 115.439 148.895 116.384 148.824C125.966 148.115 137.012 147.58 149.032 147.234L152.465 147.117L153.621 147.092L156.062 147.038L157.042 147.018L158.07 146.998L158.803 146.986L162.241 146.931L164.007 146.906H164.368C168.545 146.856 172.8 146.83 177.134 146.829C185.698 146.829 194.004 146.931 201.919 147.125C206.463 147.234 210.868 147.374 215.135 147.543H215.175C227.477 148.025 238.488 148.737 247.601 149.62L247.768 149.637C250.107 149.864 252.322 150.105 254.4 150.354C256.356 150.587 258.192 150.834 259.896 151.085C260.486 151.172 261.059 151.262 261.617 151.349L261.759 151.373C264.121 151.754 266.194 152.142 267.95 152.562Z" fill="#63C2FF"/>
<path d="M262.698 156.371C262.669 156.412 262.637 156.45 262.601 156.485C262.404 156.653 262.169 156.77 261.916 156.829C261.412 156.97 260.894 157.053 260.371 157.077H260.215C259.916 157.087 259.617 157.077 259.32 157.047C259.103 157.016 258.884 157.002 258.665 157.005H258.635C258.316 157.05 258.003 157.127 257.701 157.236C257.027 157.421 256.332 157.52 255.633 157.53H255.384C254.602 157.53 253.809 157.503 253.025 157.508C252.898 157.508 252.776 157.508 252.644 157.508C251.298 157.542 249.96 157.756 248.615 157.779H248.184C246.866 157.746 245.519 157.465 244.47 156.669C244.258 156.53 244.087 156.338 243.971 156.112C243.882 155.874 243.852 155.618 243.884 155.366C243.909 154.916 243.996 154.426 244.335 154.122C244.548 153.959 244.792 153.841 245.053 153.776C245.509 153.63 245.967 153.488 246.423 153.346C246.879 153.204 247.399 153.053 247.89 152.908L247.985 152.878L248.259 152.796L248.436 152.737C248.65 152.668 248.856 152.574 249.049 152.458C249.303 152.297 249.518 152.082 249.679 151.829C249.706 151.784 249.736 151.737 249.761 151.689C249.786 151.642 249.761 151.612 249.744 151.572C249.701 151.262 249.669 150.943 249.614 150.64C248.913 150.477 248.274 150.116 247.773 149.6C247.343 149.174 246.981 148.685 246.699 148.15C246.079 146.986 245.76 145.685 245.297 144.448C244.587 142.568 243.553 140.831 242.512 139.11C241.56 137.523 240.603 135.931 239.522 134.431C238.802 133.436 238.027 132.488 237.315 131.491C235.299 128.708 233.853 125.555 233.06 122.213C232.938 121.571 232.766 120.941 232.544 120.327C232.116 119.282 231.331 118.432 230.723 117.476C230.069 116.447 229.622 115.301 229.405 114.101C229.281 113.419 229.071 112.683 228.391 112.608L228.319 112.75C226.909 115.487 225.461 118.272 223.336 120.506C222.996 120.835 222.686 121.192 222.407 121.573C222.184 121.943 221.984 122.327 221.809 122.723C221.473 123.432 221.026 124.085 220.486 124.655C220.326 124.818 220.151 124.965 219.963 125.096C219.714 125.276 219.437 125.415 219.144 125.506C219.028 125.541 218.91 125.568 218.79 125.586C218.79 125.616 218.802 125.643 218.805 125.673C218.807 125.703 218.82 125.737 218.825 125.77C219.191 127.76 219.034 129.811 218.369 131.722C218.351 131.782 218.331 131.839 218.309 131.899C218.206 132.178 218.094 132.451 217.973 132.72C217.669 133.379 217.308 134.011 217.024 134.68C216.976 134.794 216.929 134.909 216.887 135.023C215.89 137.687 216.139 140.662 216.01 143.525C215.998 144.151 215.924 144.775 215.788 145.386C215.618 146.075 215.347 146.787 215.197 147.498C215.061 148.031 215.05 148.589 215.165 149.127L215.105 149.15C214.839 149.249 214.567 149.339 214.296 149.423V149.461C214.393 150.018 214.487 150.575 214.585 151.13C214.667 151.607 214.764 152.125 215.098 152.463C215.189 152.538 215.272 152.621 215.347 152.712C215.544 153.02 215.369 153.428 215.407 153.794C215.462 154.311 215.94 154.751 215.865 155.266C215.831 155.42 215.761 155.564 215.659 155.684C215.558 155.805 215.428 155.899 215.282 155.958C215.159 156.013 215.031 156.054 214.899 156.08L214.816 156.097C214.667 156.125 214.517 156.139 214.368 156.154C212.512 156.338 210.631 156.523 208.792 156.209C208.429 156.147 208.067 156.065 207.699 156.035C207.233 156.014 206.766 156.033 206.304 156.092C202.893 156.415 199.463 156.481 196.042 156.291C195.153 156.241 194.131 156.097 193.661 155.339C193.269 154.709 193.411 153.896 193.608 153.177C193.665 152.913 193.767 152.66 193.91 152.431C193.926 152.406 193.944 152.382 193.964 152.361C194.423 151.791 195.285 151.757 196.027 151.779L198.454 151.851C198.693 151.87 198.933 151.852 199.166 151.796C199.56 151.682 199.859 151.368 200.227 151.192C200.691 150.97 201.274 150.943 201.608 150.565L201.65 150.51C201.709 150.43 201.764 150.347 201.814 150.262C201.814 150.244 201.837 150.227 201.849 150.209C201.858 150.194 201.868 150.179 201.879 150.165C202.186 149.762 202.721 149.627 203.157 149.371C203.223 149.333 203.286 149.288 203.344 149.239L203.394 149.194C202.924 148.86 202.515 148.449 202.183 147.978C202.055 147.841 201.96 147.675 201.907 147.495C201.876 147.36 201.887 147.219 201.936 147.09C201.947 147.058 201.961 147.028 201.976 146.998L201.989 146.973C202.158 146.64 202.507 146.339 202.699 145.998C202.706 145.987 202.712 145.975 202.716 145.963C202.98 145.466 203.033 144.695 202.642 144.294C202.841 141.018 203.743 137.827 203.942 134.541C204.022 133.24 203.989 131.934 204.049 130.628C204.109 129.322 204.248 128.056 204.395 126.775C204.724 123.847 205.521 120.979 205.409 118.039C205.4 117.765 205.411 117.49 205.444 117.218C205.443 117.198 205.443 117.178 205.444 117.158C205.524 116.556 205.712 115.972 206 115.437C206.361 114.831 206.77 114.256 207.223 113.715C208.755 111.725 210.596 109.735 211.142 107.288C211.423 106.024 212.046 104.867 212.666 103.731C213.033 103.054 213.414 102.36 213.999 101.863C214.316 101.643 214.611 101.393 214.879 101.116C215.287 100.589 215.302 99.8601 215.544 99.2333C215.668 98.9074 215.86 98.6089 215.955 98.2731C215.955 98.2383 215.972 98.2059 215.98 98.1711C216.035 97.8322 216.064 97.4896 216.067 97.1463C216.067 97.0468 216.082 96.9498 216.094 96.8527C216.24 95.8693 216.526 94.9118 216.944 94.0095C216.996 93.8951 217.046 93.7782 217.096 93.6638C215.946 92.9942 214.932 92.116 214.106 91.0743C213.826 90.7373 213.583 90.3712 213.381 89.9823C212.868 88.9649 212.751 87.8058 212.509 86.6914C211.931 84.0347 210.609 81.5323 210.424 78.816C210.369 77.9877 210.424 77.132 210.135 76.3484C210.056 76.1366 209.962 75.9305 209.854 75.7315C209.809 75.6469 209.767 75.5624 209.722 75.4828L209.672 75.3882L209.545 75.1395L209.341 75.2987C204.244 79.2834 198.893 82.9328 193.322 86.2237L192.843 86.5073C192.594 86.6272 192.377 86.8046 192.211 87.0247C192.191 87.057 192.173 87.0894 192.156 87.1217C192.041 87.358 192.011 87.6192 191.907 87.8679C191.682 88.4376 191.107 88.8008 190.519 88.9699C189.455 89.243 188.327 89.0979 187.368 88.5644C187.246 88.5023 187.118 88.4376 187.009 88.3654C186.717 88.5267 186.41 88.6575 186.092 88.756C185.096 89.0445 184.052 89.0321 183.02 89.0296C181.989 89.0271 180.935 89.0296 179.959 89.3679C179.306 89.5893 178.673 89.955 177.995 89.9898C177.918 89.9948 177.839 89.9948 177.761 89.9898C177.375 89.9455 176.999 89.8353 176.65 89.6639L176.446 89.5719C176.34 89.5218 176.237 89.4661 176.137 89.4052C176.028 89.338 175.927 89.2587 175.836 89.1689C175.704 89.0367 175.608 88.8732 175.557 88.6938C175.523 88.5641 175.523 88.428 175.557 88.2983C175.566 88.2401 175.596 88.1872 175.641 88.149C175.686 88.1228 175.737 88.1098 175.788 88.1117C176.074 88.1086 176.359 88.1328 176.64 88.1839C176.805 88.2065 176.972 88.2156 177.138 88.2112H177.228C177.375 88.1955 177.517 88.1498 177.646 88.0771C177.774 88.0043 177.887 87.9061 177.976 87.7884C178.003 87.7519 178.025 87.7117 178.04 87.6689C178.07 87.599 178.086 87.5237 178.085 87.4476C178.087 87.4285 178.087 87.4094 178.085 87.3904C177.981 87.3431 177.876 87.2958 177.776 87.2386C177.724 87.2113 177.674 87.1814 177.624 87.1516L177.594 87.1317C177.505 87.0709 177.422 87.0018 177.345 86.9252C177.297 86.8773 177.254 86.8238 177.218 86.766C177.152 86.6759 177.102 86.5748 177.071 86.4675C176.866 86.4247 176.653 86.4306 176.451 86.4849C176.179 86.5595 175.905 86.7187 175.636 86.7735C175.5 86.8076 175.358 86.8015 175.225 86.756C174.837 86.6167 174.7 86.1441 174.617 85.7387C174.602 85.6615 174.585 85.582 174.572 85.5024C174.544 85.3495 174.544 85.1926 174.572 85.0397C174.693 84.6921 174.923 84.3928 175.228 84.1865L176.045 83.5024L176.105 83.4527C176.105 83.3855 176.077 83.3183 176.067 83.2512C176.039 83.0974 176.039 82.9397 176.067 82.786C176.188 82.4391 176.418 82.1406 176.722 81.9353L178.531 80.4154C178.87 80.1319 179.239 79.8334 179.68 79.8035C180.335 79.7587 180.858 80.301 181.349 80.7363C181.967 81.2836 182.716 81.7313 183.541 81.786C183.934 81.804 184.326 81.75 184.699 81.6268L184.911 81.5572C184.866 81.4652 184.822 81.3731 184.779 81.2811C184.707 81.1294 184.635 80.9751 184.565 80.8209C185.626 80.7537 186.59 80.1717 187.395 79.4752C188.2 78.7787 188.89 77.9553 189.702 77.2713C190.579 76.525 191.585 75.9703 192.475 75.2514C194.542 73.5773 195.915 71.1172 198.127 69.6421C198.895 69.1272 199.782 68.7168 200.305 67.9507C200.467 67.7019 200.589 67.4532 200.756 67.2044C201.286 66.4582 202.196 66.1149 202.945 65.5975C203.695 65.0801 204.348 64.3214 204.958 63.5926C205.392 63.0727 205.828 62.5528 206.241 62.018C206.623 61.3091 206.944 60.5678 207.343 59.8688C207.681 59.2783 208.075 58.7218 208.521 58.2072C208.623 58.0082 208.728 57.8092 208.84 57.6151C208.952 57.4211 209.034 57.2893 209.139 57.1176C209.211 57.0057 209.286 56.8988 209.363 56.7893C209.136 56.3888 208.919 56.0431 208.817 55.8913L208.768 55.8242C208.548 55.5904 208.313 55.3711 208.065 55.1675C207.805 55.1281 207.547 55.0733 207.293 55.0033C205.755 54.5826 204.399 53.6687 203.433 52.4024C202.467 51.1362 201.944 49.5879 201.946 47.996C201.945 47.9886 201.945 47.9811 201.946 47.9737C201.947 46.8337 202.219 45.7101 202.739 44.6951C202.843 44.4912 202.955 44.2947 203.077 44.1031C202.964 44.0672 202.853 44.0223 202.746 43.9688C202.564 43.8794 202.406 43.7491 202.283 43.5882C202.181 43.4449 202.115 43.2795 202.091 43.1056C202.049 42.6957 202.11 42.2817 202.27 41.9017C202.338 41.7188 202.416 41.5394 202.502 41.3644C202.509 41.3542 202.515 41.3433 202.519 41.3321C203.633 39.0933 206.007 37.7177 208.379 37.6207C210.937 37.5187 213.429 38.7177 215.447 40.4341C216.049 40.9274 216.588 41.493 217.051 42.1181C218.105 43.5808 218.581 45.4513 218.72 47.3045C218.772 47.8777 218.762 48.4548 218.69 49.0259C218.664 49.2293 218.622 49.4306 218.566 49.6278C218.533 49.7447 218.491 49.8617 218.446 49.9786C218.401 50.0955 218.374 50.1477 218.334 50.2273V50.2398C218.297 50.3194 218.254 50.394 218.212 50.4686L218.189 50.5009L218.157 50.5532C218.177 50.6004 218.199 50.6502 218.222 50.6974C218.244 50.7447 218.264 50.7895 218.289 50.8343H218.319C218.817 50.8741 219.278 50.9437 219.786 50.9835C220.025 50.9948 220.263 51.0315 220.494 51.093C220.992 51.2422 221.368 51.6054 221.787 51.8989C222.823 52.6302 224.099 52.971 225.118 53.7272C226.612 54.8416 227.36 56.6823 228.267 58.3315C229.462 60.5404 231.411 62.421 232.27 64.7841C232.659 65.857 233.049 66.9283 233.441 67.9979C234.206 70.0949 234.971 72.2018 236.009 74.1793C237.454 76.9305 239.41 79.403 240.568 82.2935C240.683 82.5832 240.899 82.8217 241.176 82.9651C242.755 85.1908 244.158 87.5352 245.374 89.9773C246.014 91.2683 246.62 92.6091 246.807 94.0394C246.952 95.3129 246.847 96.6025 246.495 97.8353C246.296 98.5677 246.053 99.2871 245.765 99.9895C245.653 100.235 245.57 100.493 245.516 100.758C245.516 100.785 245.516 100.813 245.516 100.84C245.466 101.318 245.648 101.79 245.698 102.268C245.74 102.652 245.696 103.041 245.571 103.407C245.551 103.464 245.529 103.522 245.506 103.579C245.352 103.87 245.221 104.173 245.115 104.484C245.106 104.522 245.099 104.56 245.095 104.599C245.013 105.139 245.227 105.683 245.344 106.223C245.783 108.173 245.703 110.203 245.593 112.193C245.536 113.188 246.341 113.987 247.013 114.72C248.259 116.096 249.233 117.705 250.172 119.307C250.685 120.121 251.116 120.982 251.46 121.879C251.816 122.904 251.958 123.989 252.155 125.051C252.791 128.334 254.866 131.235 255.429 134.526C255.69 136.033 256.355 137.441 257.355 138.6C257.656 138.911 257.933 139.243 258.184 139.595C258.358 139.876 258.496 140.176 258.595 140.491C258.84 141.222 258.956 141.991 258.936 142.762C258.897 143.131 258.918 143.504 258.999 143.866C259.233 144.63 260.07 145.05 260.416 145.769C260.763 146.488 260.523 147.408 260.665 148.224C260.777 148.882 261.133 149.474 261.662 149.881C261.463 150.055 261.253 150.214 261.039 150.378C261.237 150.532 261.411 150.715 261.555 150.921C261.653 151.058 261.736 151.206 261.804 151.361C262.133 152.125 262.143 153.033 262.412 153.849C262.526 154.187 262.688 154.545 262.589 154.888C262.546 154.987 262.518 155.09 262.504 155.197C262.504 155.421 262.738 155.567 262.828 155.771C262.86 155.874 262.866 155.983 262.843 156.088C262.82 156.193 262.77 156.291 262.698 156.371Z" fill="url(#paint0_linear_36_198)"/>
<path d="M209.973 59.3589C211.498 58.9484 212.856 58.0903 214.186 57.242L218.822 54.2944C217.564 54.1949 216.478 53.2994 215.833 52.2148C215.188 51.1303 214.921 49.8691 214.702 48.6303C212.709 49.4064 210.982 50.7223 209.373 52.1128C208.735 52.6626 207.38 53.4934 207.183 54.3516C206.986 55.2097 208.242 55.9062 208.728 56.4808C208.895 56.6724 210.467 59.2221 209.973 59.3589Z" fill="#FBBEBE"/>
<path opacity="0.1" d="M209.973 59.3589C211.498 58.9484 212.856 58.0903 214.186 57.242L218.822 54.2944C217.564 54.1949 216.478 53.2994 215.833 52.2148C215.188 51.1303 214.921 49.8691 214.702 48.6303C212.709 49.4064 210.982 50.7223 209.373 52.1128C208.735 52.6626 207.38 53.4934 207.183 54.3516C206.986 55.2097 208.242 55.9062 208.728 56.4808C208.895 56.6724 210.467 59.2221 209.973 59.3589Z" fill="black"/>
<path d="M184.64 83.7064C183.823 84.1243 182.953 84.5521 182.039 84.4924C181.217 84.4402 180.467 83.9949 179.849 83.4502C179.351 83.0174 178.838 82.4776 178.182 82.5223C177.744 82.5522 177.375 82.8482 177.036 83.1293L175.23 84.6392C174.926 84.8432 174.696 85.1399 174.575 85.4849C174.539 85.7191 174.554 85.9582 174.617 86.1864C174.7 86.5894 174.837 87.0595 175.225 87.1963C175.614 87.3331 176.037 87.0396 176.448 86.9277C176.7 86.8636 176.963 86.8683 177.212 86.9415C177.461 87.0146 177.685 87.1533 177.861 87.3431C178.008 87.4872 178.096 87.6802 178.11 87.8854C178.11 88.3356 177.612 88.6316 177.153 88.654C176.695 88.6764 176.257 88.5271 175.803 88.5545C175.776 88.551 175.748 88.5531 175.721 88.5605C175.695 88.5679 175.67 88.5806 175.648 88.5978C175.627 88.6149 175.609 88.6362 175.596 88.6604C175.583 88.6846 175.574 88.7112 175.572 88.7386C175.543 88.8957 175.555 89.0574 175.606 89.2087C175.657 89.3599 175.745 89.496 175.863 89.6042C176.1 89.8199 176.375 89.9888 176.675 90.1017C177.024 90.2738 177.4 90.3832 177.786 90.4251C178.551 90.4748 179.254 90.052 179.979 89.8057C180.955 89.4774 182.006 89.4674 183.038 89.4699C184.069 89.4724 185.116 89.4873 186.105 89.1988C187.094 88.9102 188.033 88.2709 188.419 87.3182C188.465 87.2293 188.479 87.1279 188.461 87.0297C188.423 86.9249 188.349 86.8369 188.252 86.7809C186.862 85.7536 186.299 84.5049 184.734 83.7661L184.64 83.7064Z" fill="#FBBEBE"/>
<path opacity="0.1" d="M184.64 83.7064C183.823 84.1243 182.953 84.5521 182.039 84.4924C181.217 84.4402 180.467 83.9949 179.849 83.4502C179.351 83.0174 178.838 82.4776 178.182 82.5223C177.744 82.5522 177.375 82.8482 177.036 83.1293L175.23 84.6392C174.926 84.8432 174.696 85.1399 174.575 85.4849C174.539 85.7191 174.554 85.9582 174.617 86.1864C174.7 86.5894 174.837 87.0595 175.225 87.1963C175.614 87.3331 176.037 87.0396 176.448 86.9277C176.7 86.8636 176.963 86.8683 177.212 86.9415C177.461 87.0146 177.685 87.1533 177.861 87.3431C178.008 87.4872 178.096 87.6802 178.11 87.8854C178.11 88.3356 177.612 88.6316 177.153 88.654C176.695 88.6764 176.257 88.5271 175.803 88.5545C175.776 88.551 175.748 88.5531 175.721 88.5605C175.695 88.5679 175.67 88.5806 175.648 88.5978C175.627 88.6149 175.609 88.6362 175.596 88.6604C175.583 88.6846 175.574 88.7112 175.572 88.7386C175.543 88.8957 175.555 89.0574 175.606 89.2087C175.657 89.3599 175.745 89.496 175.863 89.6042C176.1 89.8199 176.375 89.9888 176.675 90.1017C177.024 90.2738 177.4 90.3832 177.786 90.4251C178.551 90.4748 179.254 90.052 179.979 89.8057C180.955 89.4774 182.006 89.4674 183.038 89.4699C184.069 89.4724 185.116 89.4873 186.105 89.1988C187.094 88.9102 188.033 88.2709 188.419 87.3182C188.465 87.2293 188.479 87.1279 188.461 87.0297C188.423 86.9249 188.349 86.8369 188.252 86.7809C186.862 85.7536 186.299 84.5049 184.734 83.7661L184.64 83.7064Z" fill="black"/>
<path d="M213.812 57.1774C213.426 56.9283 212.987 56.7711 212.53 56.7181C212.073 56.665 211.61 56.7175 211.177 56.8714C210.309 57.1836 209.53 57.7017 208.907 58.3813C208.285 59.0144 207.747 59.724 207.305 60.4932C206.882 61.2394 206.558 62.0205 206.134 62.7642C205.387 64.095 204.41 65.2691 203.429 66.4333C202.818 67.1571 202.201 67.891 201.418 68.4233C200.636 68.9556 199.762 69.2815 199.231 70.0202C199.064 70.2541 198.945 70.5177 198.78 70.754C198.259 71.5152 197.375 71.9232 196.605 72.4331C194.398 73.9007 193.025 76.3434 190.963 78.0076C190.073 78.724 189.069 79.2861 188.195 80.0174C187.38 80.6965 186.7 81.5099 185.888 82.2064C185.076 82.9029 184.122 83.4775 183.063 83.5422C183.77 85.1168 184.615 86.6615 185.828 87.8878C187.041 89.1142 188.86 89.8977 190.517 89.4177C191.105 89.2485 191.68 88.8903 191.904 88.3232C191.975 88.0317 192.073 87.7476 192.198 87.4749C192.365 87.256 192.581 87.0796 192.828 86.96C199.479 83.0839 205.818 78.6986 211.789 73.8435C213.391 72.5401 214.981 71.3734 216.625 70.1123C217.215 69.6948 217.76 69.218 218.252 68.6894C218.938 67.8718 219.366 66.87 219.483 65.81C219.6 64.7499 219.4 63.679 218.909 62.7319C218.469 62.0073 217.963 61.3238 217.4 60.6897C216.375 59.357 215.167 58.1747 213.812 57.1774Z" fill="#63C2FF"/>
<path opacity="0.1" d="M213.812 57.1774C213.426 56.9283 212.987 56.7711 212.53 56.7181C212.073 56.665 211.61 56.7175 211.177 56.8714C210.309 57.1836 209.53 57.7017 208.907 58.3813C208.285 59.0144 207.747 59.724 207.305 60.4932C206.882 61.2394 206.558 62.0205 206.134 62.7642C205.387 64.095 204.41 65.2691 203.429 66.4333C202.818 67.1571 202.201 67.891 201.418 68.4233C200.636 68.9556 199.762 69.2815 199.231 70.0202C199.064 70.2541 198.945 70.5177 198.78 70.754C198.259 71.5152 197.375 71.9232 196.605 72.4331C194.398 73.9007 193.025 76.3434 190.963 78.0076C190.073 78.724 189.069 79.2861 188.195 80.0174C187.38 80.6965 186.7 81.5099 185.888 82.2064C185.076 82.9029 184.122 83.4775 183.063 83.5422C183.77 85.1168 184.615 86.6615 185.828 87.8878C187.041 89.1142 188.86 89.8977 190.517 89.4177C191.105 89.2485 191.68 88.8903 191.904 88.3232C191.975 88.0317 192.073 87.7476 192.198 87.4749C192.365 87.256 192.581 87.0796 192.828 86.96C199.479 83.0839 205.818 78.6986 211.789 73.8435C213.391 72.5401 214.981 71.3734 216.625 70.1123C217.215 69.6948 217.76 69.218 218.252 68.6894C218.938 67.8718 219.366 66.87 219.483 65.81C219.6 64.7499 219.4 63.679 218.909 62.7319C218.469 62.0073 217.963 61.3238 217.4 60.6897C216.375 59.357 215.167 58.1747 213.812 57.1774Z" fill="black"/>
<path d="M203.107 149.456C202.671 149.704 202.136 149.844 201.829 150.247C201.73 150.376 201.662 150.528 201.555 150.652C201.224 151.04 200.636 151.058 200.175 151.279C199.806 151.453 199.507 151.776 199.116 151.878C198.882 151.934 198.641 151.952 198.401 151.933L195.98 151.861C195.212 151.839 194.313 151.878 193.867 152.503C193.722 152.732 193.619 152.984 193.563 153.249C193.376 153.963 193.224 154.771 193.616 155.398C194.084 156.144 195.11 156.296 195.995 156.346C199.411 156.535 202.837 156.468 206.244 156.147C206.705 156.088 207.17 156.069 207.634 156.09C208.003 156.12 208.364 156.202 208.728 156.264C210.564 156.575 212.442 156.393 214.296 156.209C214.609 156.194 214.917 156.129 215.21 156.015C215.355 155.956 215.484 155.862 215.585 155.742C215.686 155.622 215.757 155.479 215.79 155.326C215.867 154.814 215.387 154.378 215.334 153.863C215.297 153.5 215.471 153.095 215.272 152.786C215.197 152.695 215.114 152.612 215.023 152.538C214.689 152.192 214.592 151.687 214.51 151.214L214.074 148.66C214.062 148.48 213.988 148.309 213.865 148.177C213.773 148.111 213.667 148.068 213.556 148.05C211.657 147.622 209.712 148.013 207.826 148.252C206.855 148.394 205.873 148.443 204.893 148.398C204.47 148.371 204.306 148.321 203.989 148.597C203.673 148.874 203.503 149.224 203.107 149.456Z" fill="#3F3D56"/>
<path d="M248.949 152.53C248.616 152.716 248.259 152.856 247.888 152.946C246.91 153.231 245.933 153.528 244.958 153.839C244.699 153.903 244.455 154.02 244.243 154.182C243.904 154.48 243.817 154.968 243.792 155.426C243.76 155.678 243.79 155.934 243.879 156.172C243.996 156.395 244.168 156.585 244.378 156.724C245.494 157.567 246.951 157.828 248.351 157.828C249.751 157.828 251.141 157.592 252.541 157.555C254.233 157.51 255.969 157.749 257.596 157.276C257.907 157.162 258.229 157.083 258.558 157.042C258.776 157.039 258.994 157.053 259.211 157.085C260.083 157.171 260.964 157.091 261.806 156.848C262.06 156.792 262.296 156.675 262.494 156.508C262.592 156.423 262.662 156.311 262.695 156.185C262.728 156.06 262.722 155.928 262.678 155.806C262.589 155.605 262.359 155.458 262.357 155.237C262.369 155.13 262.396 155.026 262.439 154.928C262.541 154.587 262.377 154.232 262.262 153.896C261.941 152.936 261.993 151.831 261.418 150.998C260.842 150.165 259.786 149.821 258.782 149.689C257.966 149.574 257.136 149.598 256.328 149.759C255.419 149.953 254.569 150.359 253.677 150.617C252.642 150.914 251.561 151.017 250.489 150.918C249.776 150.859 250.02 150.97 249.779 151.567C249.607 151.966 249.318 152.302 248.949 152.53Z" fill="#3F3D56"/>
<path d="M209.141 55.9087C213.131 55.9087 216.366 52.679 216.366 48.695C216.366 44.711 213.131 41.4813 209.141 41.4813C205.151 41.4813 201.917 44.711 201.917 48.695C201.917 52.679 205.151 55.9087 209.141 55.9087Z" fill="#FBBEBE"/>
<path d="M261.517 149.951C259.275 151.873 256.248 152.714 253.296 152.744C252.051 152.756 250.758 152.622 249.696 151.978C249.622 151.57 249.592 151.13 249.517 150.722C248.229 150.453 247.23 149.406 246.607 148.247C245.984 147.088 245.668 145.799 245.205 144.57C244.497 142.7 243.461 140.976 242.424 139.264C241.473 137.687 240.519 136.105 239.435 134.615C238.717 133.62 237.94 132.685 237.23 131.692C235.219 128.93 233.775 125.797 232.983 122.474C232.861 121.837 232.689 121.21 232.467 120.601C232.038 119.561 231.254 118.715 230.648 117.768C229.995 116.745 229.548 115.605 229.33 114.412C229.208 113.735 228.999 113.004 228.319 112.934C226.889 115.708 225.432 118.526 223.269 120.782C222.929 121.108 222.618 121.463 222.34 121.842C222.117 122.21 221.917 122.593 221.742 122.986C221.407 123.692 220.961 124.34 220.422 124.907C219.97 125.389 219.374 125.714 218.723 125.832C219.203 128.222 218.917 130.703 217.905 132.921C217.604 133.578 217.243 134.205 216.959 134.869C215.798 137.605 216.067 140.692 215.945 143.66C215.934 144.282 215.861 144.901 215.726 145.508C215.424 146.722 214.801 148.013 215.103 149.227C211.979 150.418 208.508 150.344 205.2 149.841C204.553 149.782 203.925 149.592 203.354 149.281C202.885 148.95 202.475 148.541 202.143 148.073C202.015 147.936 201.921 147.772 201.867 147.592C201.737 147.025 202.365 146.597 202.656 146.1C202.948 145.602 203 144.814 202.599 144.406C202.798 141.15 203.7 137.971 203.9 134.705C203.979 133.411 203.947 132.113 204.007 130.817C204.067 129.521 204.206 128.26 204.351 126.986C204.679 124.078 205.477 121.228 205.364 118.305C205.33 117.405 205.538 116.513 205.965 115.72C206.325 115.118 206.733 114.546 207.186 114.009C208.715 112.036 210.554 110.059 211.099 107.624C211.381 106.367 212.004 105.218 212.622 104.089C212.988 103.415 213.369 102.726 213.952 102.231C214.269 102.012 214.564 101.762 214.831 101.484C215.24 100.96 215.255 100.241 215.496 99.6139C215.621 99.2905 215.813 98.992 215.905 98.6587C215.981 98.2904 216.019 97.9153 216.017 97.5393C216.097 96.3353 216.56 95.1712 217.048 94.0693C215.9 93.4054 214.886 92.5331 214.059 91.4972C213.781 91.1608 213.539 90.7965 213.337 90.4102C212.823 89.4002 212.706 88.2485 212.465 87.1416C211.889 84.4999 210.566 82.0149 210.382 79.316C210.327 78.4926 210.382 77.6419 210.095 76.8633C209.963 76.5338 209.808 76.2138 209.632 75.9056C209.458 75.6028 209.326 75.2783 209.238 74.9405C209.079 74.2067 209.298 73.448 209.238 72.7018C209.179 72.0426 208.897 71.4257 208.758 70.7814C208.615 69.9432 208.591 69.0891 208.685 68.2442C208.748 67.2492 208.964 66.2219 208.88 65.2393C208.742 63.6134 208.95 61.9769 209.488 60.4365C210.027 58.8961 210.885 57.4864 212.006 56.2993L212.063 56.2421C212.539 55.7446 213.06 55.3043 213.488 54.7769C214.071 54.0705 214.485 53.2397 215.1 52.5531C215.369 52.2472 215.673 51.9735 215.94 51.6651C216.184 51.3416 216.455 51.0387 216.75 50.7596C216.898 50.6216 217.079 50.522 217.275 50.4695C217.471 50.417 217.678 50.4133 217.876 50.4587C217.926 50.8296 218.042 51.1886 218.219 51.5183C218.738 51.5581 219.198 51.6303 219.714 51.6701C219.953 51.6814 220.19 51.7181 220.422 51.7795C220.907 51.9263 221.296 52.277 221.712 52.578C222.748 53.3068 224.022 53.6451 225.04 54.3963C226.535 55.5033 227.283 57.3316 228.184 58.9708C229.378 61.1673 231.323 63.0354 232.17 65.3836L233.339 68.5775C234.104 70.662 234.868 72.754 235.905 74.7191C237.347 77.4553 239.3 79.9204 240.459 82.7835C240.575 83.0707 240.789 83.3071 241.064 83.4502C242.642 85.6591 244.043 87.9879 245.257 90.4151C245.897 91.6987 246.503 93.032 246.687 94.4523C246.959 96.4597 246.41 98.4895 245.648 100.365C245.525 100.634 245.441 100.918 245.399 101.211C245.349 101.686 245.531 102.154 245.581 102.629C245.629 103.072 245.563 103.521 245.389 103.932C245.234 104.221 245.103 104.522 244.998 104.833C244.863 105.405 245.103 105.987 245.232 106.559C245.671 108.497 245.591 110.504 245.481 112.489C245.424 113.484 246.229 114.273 246.899 115.001C248.144 116.367 249.116 117.964 250.055 119.559C250.566 120.367 250.996 121.224 251.341 122.116C251.697 123.133 251.839 124.21 252.036 125.267C252.669 128.528 254.741 131.411 255.304 134.682C255.565 136.181 256.23 137.58 257.227 138.73C257.528 139.04 257.805 139.373 258.057 139.725C258.229 140.004 258.366 140.303 258.466 140.615C258.711 141.341 258.826 142.105 258.807 142.871C258.767 143.238 258.789 143.608 258.869 143.968C259.103 144.727 259.94 145.145 260.284 145.859C260.628 146.573 260.391 147.488 260.533 148.299C260.641 148.954 260.992 149.544 261.517 149.951Z" fill="#63C2FF"/>
<path d="M186.134 81.4676C185.317 81.8855 184.448 82.3134 183.533 82.2537C182.711 82.2015 181.961 81.7562 181.344 81.2114C180.845 80.7786 180.332 80.2388 179.677 80.2836C179.239 80.3135 178.87 80.6095 178.531 80.8906L176.725 82.4005C176.421 82.6045 176.191 82.9011 176.07 83.2462C176.034 83.4804 176.048 83.7195 176.112 83.9477C176.194 84.3506 176.331 84.8208 176.72 84.9576C177.108 85.0944 177.532 84.8009 177.943 84.6889C178.194 84.6248 178.458 84.6296 178.707 84.7027C178.955 84.7758 179.179 84.9146 179.356 85.1044C179.502 85.2485 179.591 85.4415 179.605 85.6466C179.605 86.0969 179.106 86.3929 178.648 86.4153C178.19 86.4376 177.751 86.2884 177.298 86.3158C177.27 86.3123 177.243 86.3143 177.216 86.3218C177.19 86.3292 177.165 86.3419 177.143 86.359C177.122 86.3762 177.104 86.3975 177.09 86.4217C177.077 86.4458 177.069 86.4724 177.066 86.4998C177.038 86.6569 177.05 86.8186 177.101 86.9699C177.152 87.1212 177.24 87.2572 177.358 87.3655C177.594 87.5812 177.87 87.75 178.17 87.863C178.518 88.035 178.894 88.1445 179.281 88.1863C180.046 88.2361 180.748 87.8132 181.473 87.567C182.45 87.2386 183.501 87.2287 184.532 87.2311C185.564 87.2336 186.61 87.2486 187.599 86.96C188.588 86.6715 189.527 86.0322 189.914 85.0795C189.959 84.9906 189.974 84.8891 189.956 84.7909C189.917 84.6861 189.843 84.5981 189.747 84.5422C188.357 83.5148 187.793 82.2661 186.229 81.5273L186.134 81.4676Z" fill="#FBBEBE"/>
<path d="M205.626 44.2623C205.195 44.332 204.829 44.623 204.42 44.7847C204.146 44.8911 203.852 44.9381 203.559 44.9227C203.265 44.9072 202.978 44.8297 202.716 44.6951C202.534 44.6067 202.374 44.4773 202.25 44.317C201.917 43.8544 202.034 43.1828 202.238 42.6405C203.205 40.0759 205.786 38.4889 208.342 38.3869C210.898 38.2849 213.384 39.4764 215.399 41.1803C215.999 41.672 216.537 42.2341 217.001 42.8544C218.052 44.3096 218.528 46.1677 218.668 48.0085C218.751 48.7809 218.7 49.562 218.516 50.3169C218.427 50.6837 218.266 51.029 218.041 51.332C217.815 51.635 217.531 51.8896 217.205 52.0805C216.493 52.4437 215.638 52.3292 214.918 51.981C214.198 51.6327 213.581 51.083 212.963 50.5581C212.683 50.2887 212.352 50.0781 211.989 49.9388C211.808 49.8744 211.612 49.8636 211.425 49.9077C211.238 49.9519 211.068 50.049 210.935 50.1875C210.601 50.588 210.686 51.2447 210.382 51.68C210.078 52.1153 209.445 52.1775 208.912 52.1775C208.379 52.1775 207.838 52.1327 207.519 51.7099C207.228 51.3268 207.27 50.7671 207.38 50.2845C207.49 49.802 207.676 49.3244 207.629 48.8293C207.527 47.8344 206.655 47.2224 206.383 46.307C206.207 45.7076 206.595 45.4538 206.555 44.9116C206.525 44.434 206.012 44.2001 205.626 44.2623Z" fill="#3F3D56"/>
<path opacity="0.1" d="M228.324 112.872V112.934C226.894 115.708 225.436 118.526 223.274 120.782C222.934 121.108 222.623 121.463 222.345 121.842C222.121 122.21 221.922 122.593 221.747 122.986C221.411 123.692 220.966 124.34 220.426 124.907L218.623 125.807L224.353 95.9573L228.324 112.872Z" fill="black"/>
<path opacity="0.1" d="M219.996 67.6944C219.504 68.223 218.958 68.6998 218.369 69.1173C216.725 70.361 215.13 71.5351 213.533 72.8485C212.246 73.8949 210.941 74.9198 209.617 75.923C209.443 75.6203 209.311 75.2957 209.223 74.9579C209.064 74.2241 209.283 73.4654 209.223 72.7192C209.164 72.06 208.882 71.4431 208.743 70.7988C208.6 69.9606 208.576 69.1066 208.67 68.2616C208.733 67.2666 208.949 66.2393 208.865 65.2567C208.727 63.6269 208.935 61.9865 209.477 60.4428C210.018 58.8991 210.88 57.4871 212.006 56.2993L212.064 56.2421C212.332 56.0864 212.616 55.9597 212.911 55.864C213.345 55.7119 213.809 55.6615 214.266 55.7167C214.723 55.7719 215.161 55.9312 215.546 56.1824C216.901 57.1797 218.108 58.362 219.134 59.6947C219.697 60.3288 220.203 61.0123 220.643 61.7369C221.136 62.6831 221.337 63.7535 221.222 64.8134C221.106 65.8734 220.68 66.8758 219.996 67.6944Z" fill="black"/>
<path d="M215.307 54.9386C214.92 54.6895 214.482 54.5324 214.025 54.4793C213.568 54.4263 213.105 54.4787 212.671 54.6326C211.803 54.9448 211.024 55.463 210.402 56.1426C209.78 56.7756 209.242 57.4853 208.8 58.2544C208.376 59.0007 208.052 59.7817 207.629 60.5255C206.882 61.8563 205.905 63.0304 204.923 64.1945C204.313 64.9184 203.695 65.6522 202.913 66.1845C202.131 66.7169 201.256 67.0427 200.726 67.7815C200.559 68.0153 200.439 68.279 200.275 68.5153C199.754 69.2765 198.87 69.6844 198.1 70.1944C195.893 71.662 194.52 74.1047 192.457 75.7688C191.568 76.4852 190.564 77.0474 189.689 77.7787C188.875 78.4578 188.195 79.2712 187.382 79.9677C186.57 80.6642 185.616 81.2388 184.557 81.3035C185.265 82.8781 186.109 84.4228 187.323 85.6491C188.536 86.8754 190.355 87.659 192.011 87.1789C192.599 87.0098 193.175 86.6516 193.399 86.0844C193.469 85.7929 193.568 85.5089 193.693 85.2362C193.859 85.0173 194.075 84.8408 194.323 84.7213C200.974 80.8451 207.313 76.4598 213.284 71.6048C214.886 70.3013 216.475 69.1347 218.12 67.8735C218.709 67.456 219.254 66.9793 219.746 66.4507C220.432 65.6331 220.86 64.6313 220.977 63.5712C221.094 62.5112 220.895 61.4403 220.404 60.4932C219.963 59.7686 219.458 59.0851 218.894 58.4509C217.869 57.1182 216.662 55.9359 215.307 54.9386Z" fill="#63C2FF"/>
<g opacity="0.1">
<path d="M209.41 51.175C208.912 51.175 208.337 51.1303 208.018 50.7074C207.729 50.3243 207.769 49.7646 207.878 49.2821C207.988 48.7995 208.175 48.3219 208.127 47.8269C208.025 46.8319 207.153 46.22 206.882 45.3046C206.705 44.7051 207.093 44.4514 207.054 43.9091C207.019 43.439 206.508 43.2051 206.122 43.2673C205.691 43.337 205.325 43.628 204.916 43.7897C204.642 43.8961 204.348 43.9431 204.054 43.9277C203.761 43.9122 203.474 43.8347 203.212 43.7001C203.03 43.6117 202.87 43.4823 202.746 43.322C202.412 42.8594 202.529 42.1878 202.734 41.6455C202.734 41.6256 202.751 41.6082 202.759 41.5883C202.55 41.9211 202.375 42.2735 202.236 42.6405C202.031 43.1828 201.914 43.8544 202.248 44.317C202.372 44.4772 202.531 44.6066 202.714 44.6951C202.975 44.8297 203.262 44.9072 203.556 44.9226C203.85 44.9381 204.144 44.8911 204.418 44.7847C204.826 44.623 205.193 44.332 205.624 44.2623C206.01 44.2001 206.52 44.434 206.555 44.9041C206.595 45.4464 206.207 45.7001 206.383 46.2996C206.65 47.215 207.522 47.8368 207.629 48.8219C207.679 49.3194 207.497 49.797 207.38 50.2771C207.263 50.7571 207.23 51.3193 207.519 51.7024C207.838 52.1253 208.409 52.1651 208.912 52.17C209.415 52.175 210.063 52.1402 210.382 51.6725C210.52 51.4377 210.61 51.1783 210.648 50.9089C210.31 51.1502 209.836 51.18 209.41 51.175Z" fill="black"/>
<path d="M217.704 51.0855C216.991 51.4487 216.137 51.3342 215.417 50.986C214.697 50.6377 214.079 50.088 213.461 49.5632C213.181 49.2937 212.85 49.0831 212.487 48.9438C212.306 48.8794 212.11 48.8686 211.923 48.9128C211.736 48.9569 211.566 49.054 211.433 49.1925C211.264 49.4422 211.157 49.7289 211.122 50.0283C211.251 49.9521 211.396 49.9044 211.545 49.8886C211.695 49.8727 211.846 49.889 211.989 49.9363C212.352 50.0756 212.683 50.2862 212.963 50.5557C213.581 51.0805 214.208 51.6327 214.919 51.9785C215.629 52.3243 216.493 52.4412 217.205 52.078C217.836 51.7098 218.295 51.1082 218.483 50.4039C218.279 50.6873 218.012 50.9204 217.704 51.0855Z" fill="black"/>
</g>
<path d="M155.704 158.02C159.831 158.02 163.178 154.679 163.178 150.558C163.178 146.436 159.831 143.095 155.704 143.095C151.576 143.095 148.23 146.436 148.23 150.558C148.23 154.679 151.576 158.02 155.704 158.02Z" fill="#3F3D56"/>
<path opacity="0.1" d="M155.704 158.02C159.831 158.02 163.178 154.679 163.178 150.558C163.178 146.436 159.831 143.095 155.704 143.095C151.576 143.095 148.23 146.436 148.23 150.558C148.23 154.679 151.576 158.02 155.704 158.02Z" fill="black"/>
<path d="M155.704 155.284C158.318 155.284 160.437 153.168 160.437 150.558C160.437 147.947 158.318 145.831 155.704 145.831C153.089 145.831 150.97 147.947 150.97 150.558C150.97 153.168 153.089 155.284 155.704 155.284Z" fill="#65617D"/>
<path opacity="0.1" d="M155.704 155.284C158.318 155.284 160.437 153.168 160.437 150.558C160.437 147.947 158.318 145.831 155.704 145.831C153.089 145.831 150.97 147.947 150.97 150.558C150.97 153.168 153.089 155.284 155.704 155.284Z" fill="black"/>
<path d="M149.974 138.866L154.877 149.936C154.95 150.102 155.069 150.243 155.22 150.344C155.371 150.444 155.547 150.5 155.729 150.504C155.91 150.507 156.089 150.459 156.244 150.365C156.399 150.27 156.523 150.133 156.603 149.971L162.43 138.12L149.974 138.866Z" fill="#3F3D56"/>
<path opacity="0.1" d="M149.974 138.866L154.877 149.936C154.95 150.102 155.069 150.243 155.22 150.344C155.371 150.444 155.547 150.5 155.729 150.504C155.91 150.507 156.089 150.459 156.244 150.365C156.399 150.27 156.523 150.133 156.603 149.971L162.43 138.12L149.974 138.866Z" fill="black"/>
<path d="M109.117 158.02C113.245 158.02 116.591 154.679 116.591 150.558C116.591 146.436 113.245 143.095 109.117 143.095C104.989 143.095 101.643 146.436 101.643 150.558C101.643 154.679 104.989 158.02 109.117 158.02Z" fill="#3F3D56"/>
<path opacity="0.1" d="M109.117 158.02C113.245 158.02 116.591 154.679 116.591 150.558C116.591 146.436 113.245 143.095 109.117 143.095C104.989 143.095 101.643 146.436 101.643 150.558C101.643 154.679 104.989 158.02 109.117 158.02Z" fill="black"/>
<path d="M109.117 155.284C111.731 155.284 113.851 153.168 113.851 150.558C113.851 147.947 111.731 145.831 109.117 145.831C106.503 145.831 104.384 147.947 104.384 150.558C104.384 153.168 106.503 155.284 109.117 155.284Z" fill="#65617D"/>
<path opacity="0.1" d="M109.117 155.284C111.731 155.284 113.851 153.168 113.851 150.558C113.851 147.947 111.731 145.831 109.117 145.831C106.503 145.831 104.384 147.947 104.384 150.558C104.384 153.168 106.503 155.284 109.117 155.284Z" fill="black"/>
<path d="M103.387 138.866L108.29 149.936C108.363 150.102 108.482 150.243 108.633 150.344C108.784 150.444 108.961 150.5 109.142 150.504C109.324 150.507 109.502 150.459 109.657 150.365C109.812 150.27 109.937 150.133 110.016 149.971L115.844 138.12L103.387 138.866Z" fill="#3F3D56"/>
<path opacity="0.1" d="M103.387 138.866L108.29 149.936C108.363 150.102 108.482 150.243 108.633 150.344C108.784 150.444 108.961 150.5 109.142 150.504C109.324 150.507 109.502 150.459 109.657 150.365C109.812 150.27 109.937 150.133 110.016 149.971L115.844 138.12L103.387 138.866Z" fill="black"/>
<path d="M179.959 85.572C179.938 85.3836 179.871 85.2033 179.762 85.0477C179.654 84.8921 179.508 84.7662 179.338 84.6815C179.195 84.6206 179.041 84.5891 178.886 84.5889C178.731 84.5886 178.577 84.6196 178.434 84.6799C178.29 84.7402 178.161 84.8287 178.053 84.9401C177.944 85.0515 177.86 85.1835 177.804 85.3282L173.516 95.9573L172.271 143.717H174.264L175.011 96.0592L179.854 86.2934C179.964 86.0699 180.001 85.8175 179.959 85.572Z" fill="#3F3D56"/>
<path d="M91.803 139.986L98.5294 135.757L171.15 135.135L173.018 139.986H91.803Z" fill="#63C2FF"/>
<path d="M91.803 144.463V139.986L174.333 139.19L174.254 142.224H93.2977V144.463H91.803Z" fill="#3F3D56"/>
<path d="M102.266 160.632C106.394 160.632 109.74 157.291 109.74 153.169C109.74 149.048 106.394 145.707 102.266 145.707C98.1386 145.707 94.7925 149.048 94.7925 153.169C94.7925 157.291 98.1386 160.632 102.266 160.632Z" fill="#3F3D56"/>
<path d="M102.266 157.896C104.88 157.896 106.999 155.78 106.999 153.169C106.999 150.559 104.88 148.443 102.266 148.443C99.6519 148.443 97.5327 150.559 97.5327 153.169C97.5327 155.78 99.6519 157.896 102.266 157.896Z" fill="#65617D"/>
<path d="M96.5364 141.478L101.439 152.548C101.512 152.713 101.631 152.855 101.782 152.956C101.933 153.056 102.11 153.112 102.291 153.115C102.473 153.119 102.651 153.071 102.806 152.976C102.961 152.882 103.086 152.745 103.166 152.582L108.993 140.732L96.5364 141.478Z" fill="#3F3D56"/>
<path d="M160.312 160.632C164.44 160.632 167.786 157.291 167.786 153.169C167.786 149.048 164.44 145.707 160.312 145.707C156.185 145.707 152.839 149.048 152.839 153.169C152.839 157.291 156.185 160.632 160.312 160.632Z" fill="#3F3D56"/>
<path d="M160.312 157.896C162.927 157.896 165.046 155.78 165.046 153.169C165.046 150.559 162.927 148.443 160.312 148.443C157.698 148.443 155.579 150.559 155.579 153.169C155.579 155.78 157.698 157.896 160.312 157.896Z" fill="#65617D"/>
<path d="M154.583 141.478L159.485 152.548C159.558 152.713 159.677 152.855 159.828 152.956C159.979 153.056 160.156 153.112 160.337 153.115C160.519 153.119 160.698 153.071 160.853 152.976C161.007 152.882 161.132 152.745 161.212 152.582L167.039 140.732L154.583 141.478Z" fill="#3F3D56"/>
<path d="M132.286 120.459H101.145V137.623H132.286V120.459Z" fill="#65617D"/>
<path opacity="0.1" d="M121.573 123.444H112.107V125.434H121.573V123.444Z" fill="black"/>
<path opacity="0.1" d="M120.39 123.693H113.29V125.185H120.39V123.693Z" fill="black"/>
<path d="M163.925 120.459H132.784V137.623H163.925V120.459Z" fill="#65617D"/>
<path opacity="0.1" d="M153.212 123.444H143.746V125.434H153.212V123.444Z" fill="black"/>
<path opacity="0.1" d="M152.029 123.693H144.929V125.185H152.029V123.693Z" fill="black"/>
<path d="M132.286 102.798H101.145V119.961H132.286V102.798Z" fill="#65617D"/>
<path opacity="0.1" d="M121.573 105.783H112.107V107.773H121.573V105.783Z" fill="black"/>
<path opacity="0.1" d="M120.39 106.032H113.29V107.524H120.39V106.032Z" fill="black"/>
<path d="M163.925 102.798H132.784V119.961H163.925V102.798Z" fill="#65617D"/>
<path opacity="0.1" d="M153.212 105.783H143.746V107.773H153.212V105.783Z" fill="black"/>
<path opacity="0.1" d="M152.029 106.032H144.929V107.524H152.029V106.032Z" fill="black"/>
<path d="M132.286 84.8879H101.145V102.052H132.286V84.8879Z" fill="#65617D"/>
<path opacity="0.1" d="M121.573 87.8729H112.107V89.8629H121.573V87.8729Z" fill="black"/>
<path opacity="0.1" d="M120.39 88.1217H113.29V89.6142H120.39V88.1217Z" fill="black"/>
<path d="M163.925 84.8879H132.784V102.052H163.925V84.8879Z" fill="#65617D"/>
<path opacity="0.1" d="M153.212 87.8729H143.746V89.8629H153.212V87.8729Z" fill="black"/>
<path opacity="0.1" d="M152.029 88.1217H144.929V89.6142H152.029V88.1217Z" fill="black"/>
<path d="M163.925 66.978H132.784V84.1417H163.925V66.978Z" fill="#65617D"/>
<path opacity="0.1" d="M153.212 69.963H143.746V71.953H153.212V69.963Z" fill="black"/>
<path opacity="0.1" d="M152.029 70.2118H144.929V71.7043H152.029V70.2118Z" fill="black"/>
</g>
<defs>
<linearGradient id="paint0_linear_36_198" x1="218.69" y1="157.806" x2="218.69" y2="37.6257" gradientUnits="userSpaceOnUse">
<stop stop-color="#808080" stop-opacity="0.25"/>
<stop offset="0.54" stop-color="#808080" stop-opacity="0.12"/>
<stop offset="1" stop-color="#808080" stop-opacity="0.1"/>
</linearGradient>
<clipPath id="clip0_36_198">
<rect width="285" height="162" fill="white"/>
</clipPath>
</defs>
</svg>
